<svg width="41" height="36" viewBox="0 0 41 36" fill="none" xmlns="http://www.w3.org/2000/svg">
<path d="M31.417 35.8008C31.1392 35.8008 30.8614 35.7661 30.5837 35.6966C30.3059 35.6272 30.0455 35.5056 29.8024 35.332L23.5524 31.6862C23.0663 31.4084 22.693 31.0352 22.4326 30.5664C22.1722 30.0977 22.042 29.5855 22.042 29.0299V21.6862C22.042 21.1306 22.1722 20.6185 22.4326 20.1497C22.693 19.681 23.0663 19.3077 23.5524 19.0299L29.8024 15.3841C30.0455 15.2105 30.3059 15.089 30.5837 15.0195C30.8614 14.9501 31.1392 14.9154 31.417 14.9154C31.6948 14.9154 31.9639 14.9588 32.2243 15.0456C32.4847 15.1324 32.7364 15.2452 32.9795 15.3841L39.2295 19.0299C39.7156 19.3077 40.0975 19.681 40.3753 20.1497C40.6531 20.6185 40.792 21.1306 40.792 21.6862V29.0299C40.792 29.5855 40.6531 30.0977 40.3753 30.5664C40.0975 31.0352 39.7156 31.4084 39.2295 31.6862L32.9795 35.332C32.7364 35.4709 32.4847 35.5838 32.2243 35.6706C31.9639 35.7574 31.6948 35.8008 31.417 35.8008ZM16.8337 16.9987C14.542 16.9987 12.5802 16.1827 10.9482 14.5508C9.3163 12.9188 8.50033 10.957 8.50033 8.66536C8.50033 6.3737 9.3163 4.41189 10.9482 2.77995C12.5802 1.148 14.542 0.332031 16.8337 0.332031C19.1253 0.332031 21.0871 1.148 22.7191 2.77995C24.351 4.41189 25.167 6.3737 25.167 8.66536C25.167 10.957 24.351 12.9188 22.7191 14.5508C21.0871 16.1827 19.1253 16.9987 16.8337 16.9987ZM0.166992 33.6654V27.832C0.166992 26.6862 0.462131 25.6098 1.05241 24.6029C1.64269 23.5959 2.45866 22.832 3.50033 22.3112C5.27116 21.4084 7.26769 20.6445 9.48991 20.0195C11.7121 19.3945 14.16 19.082 16.8337 19.082H17.5628C17.7712 19.082 17.9795 19.1168 18.1878 19.1862C17.91 19.8112 17.6757 20.4622 17.4847 21.1393C17.2937 21.8164 17.1462 22.5195 17.042 23.2487H16.8337C14.3684 23.2487 12.1548 23.5612 10.193 24.1862C8.23123 24.8112 6.62533 25.4362 5.37533 26.0612C5.06283 26.2348 4.81109 26.4779 4.62012 26.7904C4.42914 27.1029 4.33366 27.4501 4.33366 27.832V29.4987H17.4587C17.667 30.2279 17.9448 30.9483 18.292 31.6602C18.6392 32.372 19.0212 33.0404 19.4378 33.6654H0.166992ZM16.8337 12.832C17.9795 12.832 18.9604 12.424 19.7764 11.6081C20.5923 10.7921 21.0003 9.8112 21.0003 8.66536C21.0003 7.51953 20.5923 6.53863 19.7764 5.72266C18.9604 4.90668 17.9795 4.4987 16.8337 4.4987C15.6878 4.4987 14.7069 4.90668 13.891 5.72266C13.075 6.53863 12.667 7.51953 12.667 8.66536C12.667 9.8112 13.075 10.7921 13.891 11.6081C14.7069 12.424 15.6878 12.832 16.8337 12.832ZM26.5212 20.8529L31.417 23.7174L36.3128 20.8529L31.417 18.0404L26.5212 20.8529ZM32.9795 31.6862L37.667 28.9779V23.2487L32.9795 26.0091V31.6862ZM25.167 28.9779L29.8545 31.7383V26.0612L25.167 23.3008V28.9779Z" fill="#1F1F1F"/>
</svg>
