<svg width="42" height="42" viewBox="0 0 42 42" fill="none" xmlns="http://www.w3.org/2000/svg">
<path d="M7.45866 18.918L0.166992 14.7513V6.41797L7.45866 2.2513L14.7503 6.41797V14.7513L7.45866 18.918ZM7.45866 14.1263L10.5837 12.3555V8.8138L7.45866 7.04297L4.33366 8.8138V12.3555L7.45866 14.1263ZM30.3753 20.5326V15.6888L37.667 19.9596V34.543L25.167 41.8346L12.667 34.543V19.9596L19.9587 15.6888V20.5326L16.8337 22.3555V32.1471L25.167 36.9909L33.5003 32.1471V22.3555L30.3753 20.5326ZM23.0837 25.168V0.167969H41.8337L37.667 6.41797L41.8337 12.668H27.2503V25.168H23.0837Z" fill="#1F1F1F"/>
</svg>
