<svg width="44" height="40" viewBox="0 0 44 40" fill="none" xmlns="http://www.w3.org/2000/svg">
<path d="M4.33366 16.9987V29.4987V4.4987V16.9987ZM25.167 35.7487C25.7573 35.7487 26.2521 35.549 26.6514 35.1497C27.0507 34.7504 27.2503 34.2556 27.2503 33.6654C27.2503 33.0751 27.0507 32.5803 26.6514 32.181C26.2521 31.7817 25.7573 31.582 25.167 31.582C24.5767 31.582 24.0819 31.7817 23.6826 32.181C23.2833 32.5803 23.0837 33.0751 23.0837 33.6654C23.0837 34.2556 23.2833 34.7504 23.6826 35.1497C24.0819 35.549 24.5767 35.7487 25.167 35.7487ZM37.667 14.9154C38.2573 14.9154 38.7521 14.7157 39.1514 14.3164C39.5507 13.9171 39.7503 13.4223 39.7503 12.832C39.7503 12.2418 39.5507 11.747 39.1514 11.3477C38.7521 10.9484 38.2573 10.7487 37.667 10.7487C37.0767 10.7487 36.5819 10.9484 36.1826 11.3477C35.7833 11.747 35.5837 12.2418 35.5837 12.832C35.5837 13.4223 35.7833 13.9171 36.1826 14.3164C36.5819 14.7157 37.0767 14.9154 37.667 14.9154ZM8.50033 14.9154H18.917V10.7487H8.50033V14.9154ZM8.50033 23.2487H18.917V19.082H8.50033V23.2487ZM4.33366 33.6654C3.18783 33.6654 2.20692 33.2574 1.39095 32.4414C0.574978 31.6254 0.166992 30.6445 0.166992 29.4987V4.4987C0.166992 3.35286 0.574978 2.37196 1.39095 1.55599C2.20692 0.740017 3.18783 0.332031 4.33366 0.332031H37.667C38.8128 0.332031 39.7937 0.740017 40.6097 1.55599C41.4257 2.37196 41.8337 3.35286 41.8337 4.4987H4.33366V29.4987H14.7503V33.6654H4.33366ZM25.167 39.9154C23.4309 39.9154 21.9552 39.3077 20.7399 38.0924C19.5246 36.8772 18.917 35.4015 18.917 33.6654C18.917 32.3112 19.3076 31.0959 20.0889 30.0195C20.8701 28.9431 21.8684 28.1966 23.0837 27.7799V21.1654H35.5837V18.7174C34.3684 18.3008 33.3701 17.5543 32.5889 16.4779C31.8076 15.4015 31.417 14.1862 31.417 12.832C31.417 11.0959 32.0246 9.62023 33.2399 8.40495C34.4552 7.18967 35.9309 6.58203 37.667 6.58203C39.4031 6.58203 40.8788 7.18967 42.0941 8.40495C43.3094 9.62023 43.917 11.0959 43.917 12.832C43.917 14.1862 43.5264 15.4015 42.7451 16.4779C41.9639 17.5543 40.9656 18.3008 39.7503 18.7174V25.332H27.2503V27.7799C28.4656 28.1966 29.4639 28.9431 30.2451 30.0195C31.0264 31.0959 31.417 32.3112 31.417 33.6654C31.417 35.4015 30.8094 36.8772 29.5941 38.0924C28.3788 39.3077 26.9031 39.9154 25.167 39.9154Z" fill="#1F1F1F"/>
</svg>
