<?xml version="1.0" encoding="UTF-8"?>
<svg version="1.1" xmlns="http://www.w3.org/2000/svg" width="125" height="31">
<path d="M0 0 C2.37625177 -0.10883596 4.74743976 -0.18766696 7.125 -0.25 C7.79015625 -0.28351562 8.4553125 -0.31703125 9.140625 -0.3515625 C14.28175552 -0.45236898 17.06679432 0.75539709 21 4 C21.99 5.485 21.99 5.485 23 7 C23.33 6.67 23.66 6.34 24 6 C25.65 6 27.3 6 29 6 C29 11.94 29 17.88 29 24 C27.35 24 25.7 24 24 24 C23.67 21.69 23.34 19.38 23 17 C22.236875 17.969375 21.47375 18.93875 20.6875 19.9375 C18.73251185 22.42086332 18.14349841 22.9521672 15 24 C12.60509014 24.06970052 10.20832309 24.08448003 7.8125 24.0625 C6.54019531 24.05347656 5.26789062 24.04445313 3.95703125 24.03515625 C2.49330078 24.01775391 2.49330078 24.01775391 1 24 C2.61268692 21.28775382 4.24901874 18.62647188 6 16 C5.05125 16.350625 4.1025 16.70125 3.125 17.0625 C0 18 0 18 -2 17 C-1.39305845 13.84669446 -0.3583335 11.81111133 1.5625 9.25 C2.01753906 8.63640625 2.47257813 8.0228125 2.94140625 7.390625 C3.29074219 6.93171875 3.64007813 6.4728125 4 6 C3.34 5.38125 2.68 4.7625 2 4.125 C0 2 0 2 0 0 Z M6 4 C6.33 4.66 6.66 5.32 7 6 C7.33 5.34 7.66 4.68 8 4 C7.34 4 6.68 4 6 4 Z M10 5 C10 5.99 10 6.98 10 8 C10.639375 8.61875 11.27875 9.2375 11.9375 9.875 C14.27990815 12.28839022 14.63515416 13.7163874 15 17 C15.66 16.67 16.32 16.34 17 16 C16.57265562 11.76746472 16.57265562 11.76746472 14.5625 8.125 C13.05038276 6.80523176 13.05038276 6.80523176 11 7 C10.67 6.34 10.34 5.68 10 5 Z M12 14 C11.773125 14.78375 11.54625 15.5675 11.3125 16.375 C10 19 10 19 7.375 20.3125 C6.59125 20.539375 5.8075 20.76625 5 21 C5 21.33 5 21.66 5 22 C10.3086849 21.41825155 10.3086849 21.41825155 15 19 C14.34 17.35 13.68 15.7 13 14 C12.67 14 12.34 14 12 14 Z " fill="#FFFFFF" transform="translate(2,0)"/>
<path d="M0 0 C0.11604679 3.4372166 0.18719508 6.87393086 0.25 10.3125 C0.30027344 11.77719727 0.30027344 11.77719727 0.3515625 13.27148438 C0.36445312 14.20927734 0.37734375 15.14707031 0.390625 16.11328125 C0.41157227 16.97735596 0.43251953 17.84143066 0.45410156 18.73168945 C0 21 0 21 -1.86987305 22.78491211 C-4.46263938 24.26390329 -6.09625688 24.33947943 -9.0625 24.25 C-9.91972656 24.23453125 -10.77695312 24.2190625 -11.66015625 24.203125 C-14 24 -14 24 -17 23 C-16.34 21.35 -15.68 19.7 -15 18 C-14.34 18 -13.68 18 -13 18 C-13.825 17.525625 -14.65 17.05125 -15.5 16.5625 C-18.18870447 13.80657791 -18.46207252 13.21808069 -18.6875 9.5625 C-18.44338423 5.95434986 -17.99306536 4.99056118 -15.75 1.9375 C-11.15915076 -1.30049029 -5.33967508 -0.38881129 0 0 Z M-12 5 C-14.264384 7.69155201 -14.264384 7.69155201 -13.75 10.0625 C-13.07467282 12.19476975 -13.07467282 12.19476975 -11 14 C-8.44539786 14.07272562 -8.44539786 14.07272562 -6 13 C-4.42776606 10.69464365 -4.42776606 10.69464365 -4 8 C-4.66 7.01 -5.32 6.02 -6 5 C-9 4.5 -9 4.5 -12 5 Z " fill="#FFFFFF" transform="translate(51,6)"/>
<path d="M0 0 C2.96326994 2.10548127 3.83222327 3.47429959 4.9375 6.9375 C5.01245915 10.61049821 4.178742 12.09501066 2 15 C-0.37040308 17.37040308 -1.06302753 17.34465793 -4.3125 17.4375 C-7.93181925 17.34409821 -8.92557203 17.05012496 -12.0625 14.9375 C-14.50495172 11.23442804 -14.7007844 9.36043626 -14 5 C-10.1746717 -1.06776214 -6.82318725 -1.55616551 0 0 Z M-9 6 C-9.33333333 8.5 -9.33333333 8.5 -9 11 C-8.34 11.66 -7.68 12.32 -7 13 C-3.90073181 12.67801034 -3.90073181 12.67801034 -1 12 C-0.3121764 9.64632287 -0.3121764 9.64632287 0 7 C-0.66 6.01 -1.32 5.02 -2 4 C-5.45795783 3.56775527 -6.47975609 3.47975609 -9 6 Z " fill="#FFFFFF" transform="translate(93,7)"/>
<path d="M0 0 C2.9375 1.875 2.9375 1.875 5 4 C5 4.66 5 5.32 5 6 C2.625 6.625 2.625 6.625 0 7 C-0.66 6.34 -1.32 5.68 -2 5 C-4.60280568 5.32041397 -4.60280568 5.32041397 -7 6 C-7 7.98 -7 9.96 -7 12 C-5.15274948 12.69159401 -5.15274948 12.69159401 -3 13 C-2.01 12.34 -1.02 11.68 0 11 C2.6875 10.875 2.6875 10.875 5 11 C4.64393309 13.58148508 4.16671807 14.82045747 2.375 16.75 C-1.02661839 18.54032547 -3.20173198 18.52389904 -7 18 C-10.4375 16 -10.4375 16 -13 13 C-13.79501064 9.93526433 -13.51768782 8.2614333 -13 5 C-9.24856554 0.1231352 -6.03564304 -0.51149517 0 0 Z " fill="#FFFFFF" transform="translate(73,6)"/>
<path d="M0 0 C2.4375 1 2.4375 1 4 2 C3.34 3.32 2.68 4.64 2 6 C-0.64 5.34 -3.28 4.68 -6 4 C-6 4.66 -6 5.32 -6 6 C-4.741875 6.226875 -3.48375 6.45375 -2.1875 6.6875 C1.00287993 7.48651167 1.84745085 7.82950389 4.125 10.375 C5 13 5 13 4.3125 15.25 C3 17 3 17 1 18 C-6.22330097 18.46601942 -6.22330097 18.46601942 -9.5 16.5 C-9.995 16.005 -10.49 15.51 -11 15 C-10.34 13.68 -9.68 12.36 -9 11 C-8.34 11 -7.68 11 -7 11 C-7 11.66 -7 12.32 -7 13 C-4.69 13.33 -2.38 13.66 0 14 C-0.80353553 11.86054904 -0.80353553 11.86054904 -2.77734375 11.21875 C-3.49019531 10.9815625 -4.20304687 10.744375 -4.9375 10.5 C-7.70455204 9.57597536 -8.89137369 9.10862631 -11 7 C-10.8125 4.5 -10.8125 4.5 -10 2 C-6.29873141 -0.46751239 -4.37776468 -0.30721156 0 0 Z " fill="#FFFFFF" transform="translate(120,6)"/>
<path d="M0 0 C1.32 0 2.64 0 4 0 C4 1.32 4 2.64 4 4 C5.32 4 6.64 4 8 4 C8 5.32 8 6.64 8 8 C6.68 8 5.36 8 4 8 C4.33 10.97 4.66 13.94 5 17 C5.99 17 6.98 17 8 17 C8 18.65 8 20.3 8 22 C5.125 22.125 5.125 22.125 2 22 C0 20 0 20 -0.1953125 17.1796875 C-0.17210938 16.08914062 -0.14890625 14.99859375 -0.125 13.875 C-0.10695313 12.77929688 -0.08890625 11.68359375 -0.0703125 10.5546875 C-0.04710938 9.71164062 -0.02390625 8.86859375 0 8 C-0.99 8 -1.98 8 -3 8 C-3 6.68 -3 5.36 -3 4 C-2.01 4 -1.02 4 0 4 C0 2.68 0 1.36 0 0 Z " fill="#FFFFFF" transform="translate(100,2)"/>
<path d="M0 0 C1.65 0 3.3 0 5 0 C5 5.94 5 11.88 5 18 C3.35 18 1.7 18 0 18 C0 12.06 0 6.12 0 0 Z " fill="#FFFFFF" transform="translate(54,6)"/>
<path d="M0 0 C1.98 0.495 1.98 0.495 4 1 C4 1.99 4 2.98 4 4 C2.35 3.67 0.7 3.34 -1 3 C-0.67 2.01 -0.34 1.02 0 0 Z " fill="#FFFFFF" transform="translate(27,0)"/>
<path d="M0 0 C0.99 0.33 1.98 0.66 3 1 C3 1.99 3 2.98 3 4 C1.68 4 0.36 4 -1 4 C-0.67 2.68 -0.34 1.36 0 0 Z " fill="#FFFFFF" transform="translate(55,0)"/>
</svg>
