<svg width="125" height="31" viewBox="0 0 125 31" fill="none" xmlns="http://www.w3.org/2000/svg">
<path d="M50.9658 15.4362C50.9658 21.1949 50.842 24.5128 50.625 25.1657C49.912 27.1786 47.9589 28.8937 45.541 29.6393C43.743 30.1985 40.797 30.1606 38.5029 29.5456C36.612 29.0423 34.5352 28.1475 34.5352 27.8307C34.5361 27.7176 34.9073 27.0285 35.3408 26.2838C36.0848 25.091 36.7671 24.6068 37.0771 25.11C37.1391 25.2032 38.0071 25.5948 38.999 25.9489C42.3779 27.1603 45.2301 26.7501 46.6562 24.8493C46.9662 24.4393 47.245 23.7497 47.2451 23.321V22.5378L45.665 23.1901C44.0841 23.8238 43.2466 23.9356 40.9219 23.8424C37.7909 23.712 34.8453 21.5315 33.4502 18.3258C32.8302 16.8907 32.8302 13.6283 33.4502 12.1745C34.5043 9.73289 36.7678 7.72053 39.3408 7.03091C41.6347 6.39733 44.5172 6.69522 46.4082 7.75748L47.2451 8.24185V6.67642H50.9658V15.4362ZM85.6865 6.99283C87.1126 6.62009 89.3755 6.6016 90.7705 6.95572C93.0335 7.53354 95.2653 9.30424 96.4434 11.5036C97.1873 12.8829 97.3427 16.6105 96.7227 18.2506C95.3896 21.8292 92.2891 23.861 88.166 23.861C84.5703 23.8609 81.8732 22.3138 80.1992 19.276C79.4552 17.9341 79.3623 17.4677 79.3623 15.2497C79.3623 12.9759 79.4243 12.5845 80.1992 11.2614C81.4703 9.08067 83.3925 7.57063 85.6865 6.99283ZM113.742 6.63834C114.641 6.37746 115.447 6.30309 116.718 6.37759C118.95 6.47078 120.345 6.88151 122.298 7.98111L123.879 8.87564L122.701 10.1989L121.492 11.5221L120.407 10.7956C118.888 9.80772 117.865 9.47134 116.253 9.47134C115.106 9.47136 114.765 9.5649 114.083 10.0495C112.409 11.2423 113.432 12.4171 116.842 13.1813C121.771 14.2809 123.631 15.5664 124.034 18.1569C124.375 20.3748 122.577 22.6862 119.818 23.5436C118.392 23.9723 116.161 23.9538 114.642 23.4879C113.092 23.022 110.86 21.6431 109.898 20.5807L109.154 19.779L110.549 18.6422L111.944 17.486L112.688 18.4372C113.681 19.723 116.098 21.0278 117.462 21.028C118.764 21.028 120.252 20.3009 120.5 19.5368C120.996 18.1016 119.694 17.0388 116.594 16.3678C112.812 15.5291 110.828 14.4292 109.991 12.7145C108.813 10.2729 110.487 7.5516 113.742 6.63834ZM8.89746 0.376617C16.8334 0.45117 16.8337 0.450822 19.6855 2.22134C21.7936 3.54469 23.3439 5.39062 24.3359 7.70181C25.3587 10.0688 25.3589 14.0753 24.3672 16.3678C22.6311 20.3379 19.3753 22.8736 15.1592 23.5446C13.8262 23.7496 11.9041 23.824 8.18457 23.8053C5.36513 23.8053 3.22665 23.7674 3.37891 23.7301C3.5649 23.6929 5.36322 23.3579 7.40918 22.9665C9.45523 22.5937 11.6258 22.109 12.2148 21.904C14.6327 21.0652 16.4926 19.686 17.5156 17.9528C18.0116 17.1141 18.0737 17.0766 18.1357 17.5797C18.1977 18.698 19.0657 16.3498 19.2207 14.5045C19.521 11.5613 18.0467 8.86261 15.1074 6.96841L14.3105 6.47037C13.2607 5.79153 13.0981 5.48342 12.5557 4.04849C11.5016 1.32726 11.6563 1.40132 10.4473 2.85513L9.3623 4.14127L8.99023 3.61978C8.64924 3.11655 8.61798 3.13461 7.87402 4.42056C7.47101 5.14747 7.03734 5.7438 6.94434 5.7438C6.75753 5.7429 1.98438 0.655843 1.98438 0.450836C1.9867 0.376338 5.08579 0.339354 8.89746 0.376617ZM103.667 6.67642H107.077V9.47232H103.667V14.3551C103.667 18.9207 103.698 19.2942 104.287 19.8532C105 20.5614 105.527 20.6173 106.953 20.0768L108.008 19.6862V23.2458L107.077 23.5436C105.186 24.1213 102.799 23.7118 101.497 22.5749C100.226 21.4566 99.9473 20.0584 99.9473 14.5417V9.47232H97.7773V6.67642H99.9473V2.20279H103.667V6.67642ZM30.5039 23.6374H26.7842V6.67642H30.5039V23.6374ZM58.0947 23.6374H54.0645V6.67642H58.0947V23.6374ZM67.4883 6.52701C69.2863 6.28471 69.4109 6.28479 70.9609 6.50845C73.3789 6.88133 75.7662 8.46554 77.1611 10.6461C77.471 11.1306 77.6565 11.559 77.5635 11.6149C77.5006 11.6524 76.6644 11.9138 75.7041 12.1559L73.9365 12.6217L73.2861 11.8014C71.6741 9.80709 68.7594 9.22939 66.6514 10.4782C65.0084 11.4847 64.1719 12.9574 64.1719 14.9704C64.1719 17.0763 64.9776 18.4553 66.7754 19.4245C67.7984 19.965 68.2635 20.0954 69.3174 20.0954C70.4334 20.0954 70.7749 19.9844 71.9219 19.2575C72.6659 18.8102 73.41 18.1012 73.627 17.6725C73.8435 17.2633 74.0291 16.9285 74.0605 16.9274C74.0915 16.9274 74.9291 17.1324 75.9521 17.3747C78.0288 17.8778 78.0596 17.9524 76.9746 19.5924C75.1766 22.3508 71.6118 23.8977 68.0469 23.5251C59.7077 22.6304 57.3205 11.4843 64.6367 7.53287C65.6285 6.99253 66.6514 6.63886 67.4883 6.52701ZM10.0439 4.88638C11.3148 3.32095 11.6253 3.54541 11.6562 5.98697C11.6872 7.66377 11.7181 7.72005 12.6787 8.27896C14.3217 9.22951 15.2836 10.2359 15.9346 11.7829C16.6476 13.4976 16.7091 15.3248 16.1201 16.6481L15.6865 17.5797L15.6553 16.4616C15.6243 14.7656 14.8491 13.2188 13.7021 12.4919C12.1211 11.5226 11.8732 11.7272 12.7412 13.237C13.8262 15.1194 13.6399 16.5732 12.0898 18.4557C11.4699 19.2012 11.0359 19.6112 11.1289 19.3503C11.2529 19.0893 11.3767 18.3435 11.4697 17.6725C11.5937 16.48 11.5941 16.4802 11.1602 17.1325C9.82717 19.2013 8.12227 20.5994 5.73535 21.6618C4.89911 22.0342 4.15532 22.3321 4.03027 22.3327C3.93727 22.3327 4.74335 21.5683 5.85938 20.6364C8.15318 18.7355 8.33942 18.5302 8.64941 17.151C8.8354 16.331 8.77262 16.0889 8.30762 15.7907C7.56372 15.2876 7.28489 15.3246 5.20801 16.2751C4.2164 16.7222 3.13183 17.1136 2.82129 17.1139C2.54228 17.1139 1.7665 16.8343 1.14648 16.4801L0 15.8649L0.526367 15.026C0.836375 14.5787 1.6742 13.5724 2.44922 12.8083C3.47213 11.8019 3.84375 11.2238 3.84375 10.6833C3.84393 9.26673 6.10689 7.0485 8.21484 6.39615C8.71086 6.2284 9.42393 5.65057 10.0439 4.88638ZM89.5303 10.2917C88.2286 9.95625 87.9493 9.97462 86.6787 10.3659C84.5707 11.0555 83.1748 12.9387 83.1748 15.194C83.1438 16.8154 83.3613 17.5053 84.3223 18.6422C87.2983 22.1833 92.8786 20.3194 93.3438 15.6227C93.5918 13.2929 91.8863 10.8881 89.5303 10.2917ZM43.4326 10.3669C42.2236 9.97544 41.7891 9.97578 40.5801 10.2926C39.3403 10.6281 38.7509 11.0568 37.79 12.2868C35.2484 15.6231 37.7289 20.4684 42.0068 20.4684C43.0296 20.4684 43.4329 20.3385 44.5488 19.6676C48.3928 17.3564 47.7106 11.7462 43.4326 10.3669ZM6.2002 10.0309C5.89019 10.0309 4.77441 11.3176 4.77441 11.6344C4.80546 11.9321 4.89833 11.9134 5.54883 11.4665C5.98284 11.1869 6.32422 10.7391 6.32422 10.4782C6.32418 10.2363 6.26211 10.0314 6.2002 10.0309ZM27.4355 1.01041C28.2106 0.413971 28.831 0.394691 29.792 0.935211C30.753 1.47574 30.8148 3.13484 29.8848 3.694C29.2338 4.08533 28.4278 4.15989 27.8389 3.91763C26.661 3.45173 26.413 1.79335 27.4355 1.01041ZM54.9648 0.879547C55.8948 0.413639 56.3909 0.43214 57.1348 0.935211C59.2117 2.27713 57.0113 4.99822 54.9033 3.71255C53.8803 3.11612 53.9418 1.38279 54.9648 0.879547Z" fill="black"/>
</svg>
