<svg width="161" height="179" viewBox="0 0 161 179" fill="none" xmlns="http://www.w3.org/2000/svg">
<path d="M24.3811 72.8698C24.6582 72.8849 24.9231 72.8921 25.1699 72.8952C24.6471 72.6488 24.0874 72.3394 23.6094 72.0171C22.9533 71.5763 22.2944 70.917 21.7663 70.2303C21.3098 69.6372 20.919 68.9818 20.7264 68.3879L20.6572 68.1376C20.5831 67.8214 20.5283 67.55 20.5451 67.297C20.5637 67.0105 20.6702 66.7979 20.7836 66.5983L20.7872 66.5917L20.7908 66.5843C20.9036 66.3994 21.0963 66.2074 21.2826 66.0492C21.477 65.8848 21.7105 65.7207 21.9433 65.5966C22.3249 65.3836 22.5193 65.1851 22.6078 65.0257C22.6823 64.8919 22.7029 64.7478 22.6382 64.5408L22.6361 64.5346L22.6011 64.4206L20.5148 64.124C19.6921 64.0102 19.0733 63.9066 18.6437 63.8119C18.4299 63.7647 18.2505 63.7174 18.1115 63.6675C18.0416 63.6425 17.9711 63.6134 17.9079 63.5781C17.8666 63.5552 17.8056 63.5171 17.7468 63.4582L17.6889 63.3918C17.6306 63.3122 17.4514 63.0611 17.5564 62.7277C17.6009 62.5864 17.6822 62.4837 17.7514 62.4142C17.8207 62.3437 17.903 62.2823 17.9865 62.2271C18.3044 62.0168 18.9146 61.7262 19.9448 61.246C24.3094 59.2108 27.9647 56.8616 31.3692 53.8894C33.1524 52.3338 35.3977 50.2495 37.2712 48.4419C38.2074 47.5384 39.0481 46.706 39.69 46.045C39.7962 45.9359 39.8964 45.8312 39.9912 45.7324C39.874 45.7466 39.7567 45.7535 39.6402 45.7535C39.189 45.7531 38.7582 45.6443 38.303 45.4444L38.302 45.4443C37.3234 45.0122 36.4207 44.02 36.1117 42.9619C35.9641 42.4594 35.9419 41.8172 36.0031 41.2304C36.0634 40.6513 36.2143 40.0373 36.4771 39.6086C36.7019 39.2367 37.4003 38.3851 38.2475 37.4101C39.1105 36.4181 40.168 35.2529 41.1474 34.2293C43.1724 32.0969 45.7253 29.6763 47.9601 27.7124C49.0775 26.7303 50.1202 25.8585 50.9791 25.1912C51.8205 24.5381 52.5334 24.0439 52.974 23.8615L52.9779 23.86C54.7904 23.126 56.4495 23.0031 57.6853 23.6812L57.6843 23.6821C57.9172 23.8096 58.0738 23.8949 58.1923 23.9525C58.2196 23.8824 58.255 23.7901 58.3037 23.6622L58.3051 23.6574C58.9122 22.0971 59.294 20.5085 59.5042 18.6093C59.8921 15.095 59.4845 11.9953 58.2537 8.96309C58.1352 8.66947 58.0306 8.38494 57.9584 8.16109C57.923 8.05063 57.8925 7.94713 57.8713 7.86063C57.8611 7.81824 57.8516 7.76934 57.8448 7.72112C57.8419 7.69717 57.838 7.6647 57.8383 7.62806C57.8376 7.60102 57.8403 7.54244 57.8584 7.47209L57.8576 7.47101C57.858 7.46723 57.8594 7.46318 57.8607 7.45957C57.8611 7.45605 57.8624 7.45257 57.8637 7.44909L57.8645 7.45017C57.9304 7.22549 58.1018 7.13437 58.1578 7.10828C58.2325 7.07365 58.3049 7.05929 58.3533 7.05228C58.4547 7.03743 58.5741 7.0367 58.6901 7.04141C58.9305 7.05126 59.2507 7.08905 59.6083 7.14397C60.3261 7.2543 61.2421 7.44351 62.0733 7.66627L62.0742 7.66637C67.2279 9.06595 72.2483 12.2762 75.6649 16.3317L75.666 16.3308L76.3353 17.1152L75.7353 17.8781L74.3705 16.9253L74.3661 16.9229C71.7615 15.0671 68.9848 13.932 65.8159 13.4184C65.7902 13.4144 65.7653 13.4119 65.7406 13.4081C68.5779 15.7054 70.1804 19.4059 70.0592 23.3741C70.0256 24.613 69.6195 26.3965 69.0983 27.694C69.1323 27.6732 69.1673 27.6524 69.2023 27.6309L69.2042 27.6301C73.185 25.2216 78.1764 23.159 83.0829 21.9048L84.0632 21.6646C89.7465 20.3422 94.7141 20.0532 100.697 20.6999L100.699 20.7001C104.988 21.1746 108.386 21.9407 112.147 23.301C107.875 20.2549 103.371 18.1126 98.1364 16.6417C96.9258 16.3006 95.7217 16.061 93.6508 15.7681L92.7068 15.6381C88.6365 15.0977 86.2815 15.0472 82.765 15.391L80.6559 15.5958L80.4543 15.6148L80.3062 15.4697L79.4727 14.6524L79.4702 14.6501C72.9181 8.13591 64.2623 4.52327 55.3837 4.58478L55.3819 4.58457C54.7085 4.58685 54.2373 4.58187 53.9039 4.59593C53.873 4.59721 53.8437 4.60043 53.8165 4.60198C53.9049 4.747 54.0234 4.93076 54.1777 5.1794C57.0692 9.75122 58.4106 14.9609 58.1027 20.3299L58.103 20.3357C58.0693 20.8256 58.0337 21.2741 58.0011 21.6018C57.9851 21.7638 57.9686 21.9044 57.9525 22.0081C57.9443 22.0569 57.9351 22.1146 57.921 22.1657C57.9159 22.1872 57.902 22.2364 57.8766 22.2895C57.8645 22.3142 57.834 22.3709 57.7793 22.4271C57.7309 22.4771 57.6244 22.5632 57.4726 22.5701L57.403 22.5673C57.3413 22.5604 57.2867 22.5397 57.2786 22.5368C57.2553 22.5285 57.2322 22.5189 57.209 22.5094C57.1635 22.4903 57.1075 22.4658 57.0472 22.4375C56.9249 22.3805 56.772 22.3046 56.6166 22.2258L56.6149 22.2247C55.9964 21.9078 55.5089 21.8055 54.7532 21.9705C54.05 22.1243 53.1237 22.5091 51.6877 23.2102L51.0389 23.5295C47.4998 25.3002 44.2508 27.4059 40.9193 30.1059L40.2527 30.6541C38.9689 31.724 37.2587 33.109 36.4426 33.7608L36.4405 33.7635L36.1592 33.9888C34.7787 35.1238 33.7807 36.3247 33.3986 37.2411L33.3946 37.2524C33.217 37.6524 33.1427 38.0883 33.0613 39.5904L33.062 39.5924C33.003 40.6401 32.8136 42.8485 32.6305 44.5122L32.3106 47.5296L32.2914 47.7122L32.1672 47.8399L30.9342 49.1085C26.9471 53.2256 21.8633 57.0932 16.7533 59.9084C16.058 60.2939 15.523 60.5704 15.1185 60.7464C14.9158 60.8345 14.7358 60.9019 14.5782 60.9451C14.4272 60.9868 14.2647 61.0145 14.1099 60.9974C13.3492 60.9133 12.4604 61.3965 12.0061 62.2079L12.0049 62.2098C11.5003 63.1053 11.6048 64.3346 12.2376 65.0534C12.5395 65.3917 12.7785 65.9785 12.8786 66.4979C13.0414 67.3265 13.59 68.2328 14.2946 68.8161C14.547 69.0128 14.6857 69.0988 14.8781 69.1626C15.0418 69.2167 15.2517 69.2579 15.5969 69.306L15.9912 69.3575L17.3039 69.5175L17.4354 69.534L17.5393 69.6231L18.433 70.4019L18.4346 70.404C20.2227 71.9797 22.0717 72.7447 24.3811 72.8698Z" fill="#D9D9D9"/>
<path d="M41.9099 25.7975L41.8504 25.7369C40.5158 24.4189 39.1993 22.2289 38.5127 20.2016L38.512 20.1995C38.3297 19.6569 38.1286 18.8784 37.9791 18.1912C37.9044 17.8462 37.8402 17.5163 37.7985 17.2447C37.7771 17.1092 37.7594 16.983 37.75 16.8738C37.7405 16.7743 37.7341 16.6555 37.7458 16.5501C37.7581 16.4389 37.808 16.308 37.9178 16.2086C38.0191 16.1184 38.1262 16.0945 38.1884 16.0882C38.2997 16.077 38.3911 16.1102 38.4233 16.122C38.5066 16.153 38.5924 16.2032 38.662 16.2486C38.8107 16.3458 38.9976 16.4928 39.1921 16.665L39.1931 16.6641C41.2321 18.4335 43.7058 19.5931 45.9006 19.836C46.1963 19.8687 46.4727 19.915 46.6816 19.9656C46.7832 19.9902 46.8854 20.0193 46.969 20.0555C47.0082 20.0721 47.0702 20.1018 47.1293 20.1489C47.155 20.1689 47.3619 20.3303 47.3293 20.6327C47.3225 20.6943 47.306 20.7424 47.3018 20.7554C47.2948 20.7764 47.2872 20.7945 47.2811 20.8072C47.2708 20.8331 47.2586 20.8594 47.2466 20.883C47.2226 20.9315 47.1907 20.9927 47.1542 21.0614C47.0792 21.1998 46.9745 21.3876 46.8473 21.6101C46.5938 22.056 46.2463 22.652 45.867 23.2918C45.6768 23.6115 45.4953 23.9206 45.3305 24.205C47.5026 22.8245 49.8745 21.5765 52.4619 20.4539L52.4638 20.4531L52.7309 20.3392C49.6121 19.432 45.6963 17.8491 42.836 16.3156L42.8361 16.3146C40.9509 15.2956 37.2213 12.8306 35.6808 11.5859L35.6774 11.5836C35.5227 11.456 35.3698 11.3385 35.2344 11.231C35.2232 11.5766 35.2131 12.0634 35.2109 12.5557L35.2106 12.5577C35.1648 17.7495 37.4347 22.4704 41.4624 25.5447L41.8597 25.8382L41.9099 25.7975Z" fill="#D9D9D9"/>
<path d="M121.888 41.3291C121.889 41.3293 121.89 41.33 121.891 41.3304L121.892 41.3315C121.89 41.3306 121.889 41.3293 121.888 41.3291ZM122.512 73.1689C122.162 76.2172 121.786 78.1176 120.945 80.8144L120.554 82.025C120.533 82.0882 120.506 82.1631 120.472 82.2329C120.441 82.2947 120.378 82.4108 120.261 82.4965C120.11 82.6065 119.93 82.624 119.771 82.5622C119.646 82.5133 119.559 82.424 119.509 82.3661C119.403 82.2457 119.295 82.0672 119.182 81.8623C119.065 81.6476 118.92 81.3633 118.74 81.0048C118.137 79.8239 117.502 78.2001 117.011 76.6408C117.005 76.7879 117.001 76.9362 116.994 77.084C116.764 82.4986 115.262 88.5083 112.86 93.6989L112.502 94.4471C110.622 98.2282 107.541 102.635 104.72 105.525C102.09 108.223 98.4808 110.997 96.1239 112.135C90.299 114.931 86.0163 120.482 84.5393 127.141L84.5402 127.141C84.3092 128.218 84.1214 129.847 84.0445 131.275C84.5364 129.753 85.0897 128.545 85.8948 127.2L86.1362 126.804C87.2572 124.989 88.5438 123.515 90.172 122.163L90.173 122.162C91.2041 121.311 91.989 120.739 93.0354 120.189C94.0716 119.645 95.3538 119.129 97.3676 118.378L97.3687 118.377C103.256 116.19 108.812 111.056 113.04 103.861L113.445 103.158L114.367 101.523L115.224 101.828L115.099 102.963C114.653 106.993 112.749 114.235 110.768 119.41L110.768 119.412L110.527 120.051C110.75 119.894 110.998 119.718 111.251 119.533L111.254 119.53C119.737 113.428 125.286 102.584 125.487 91.665L125.486 91.6629C125.527 89.8064 125.341 86.7309 125.113 85.3512C125.064 85.0816 125.025 84.8331 125.003 84.6483C124.991 84.5577 124.983 84.4724 124.979 84.4049C124.978 84.3753 124.977 84.3273 124.981 84.2773C124.983 84.2591 124.988 84.1968 125.014 84.1257C125.026 84.0911 125.058 84.0131 125.129 83.94C125.214 83.8522 125.348 83.7825 125.504 83.7998C125.622 83.8128 125.702 83.8712 125.733 83.8958C125.77 83.9251 125.795 83.9546 125.808 83.9709C125.835 84.0043 125.854 84.0358 125.862 84.0517C125.882 84.0863 125.899 84.1229 125.912 84.1514C125.939 84.2125 125.968 84.2913 126 84.3773C126.062 84.55 126.138 84.7807 126.211 85.0286C127.636 89.6397 128.437 94.2902 128.651 99.1333C128.651 99.155 128.653 99.177 128.653 99.1984C128.693 99.106 128.737 99.0117 128.779 98.9136C129.218 97.8835 129.723 96.6039 130.04 95.6743C133.949 84.2416 133.344 71.6823 128.403 61.0372L128.401 61.035C128.154 60.4934 127.927 59.9936 127.766 59.6265C127.685 59.4437 127.619 59.2893 127.575 59.1779C127.553 59.1239 127.534 59.0707 127.519 59.0264C127.513 59.0076 127.501 58.971 127.493 58.9302C127.49 58.9141 127.48 58.8634 127.482 58.7993C127.484 58.7681 127.489 58.6983 127.521 58.6179C127.545 58.5585 127.591 58.4854 127.662 58.4233L127.661 58.4201C127.668 58.4134 127.677 58.408 127.684 58.402C127.689 58.399 127.693 58.3958 127.697 58.3927C127.707 58.3857 127.717 58.3794 127.726 58.3733C127.733 58.3694 127.74 58.3656 127.747 58.3618C127.757 58.3564 127.767 58.352 127.777 58.3475C127.782 58.3454 127.787 58.3423 127.792 58.3403L127.791 58.3422C127.883 58.3041 127.962 58.3039 127.986 58.3047C128.04 58.3068 128.087 58.3184 128.112 58.3256C128.165 58.3407 128.218 58.3632 128.259 58.3821C128.344 58.4218 128.45 58.4801 128.564 58.5466C128.796 58.6817 129.102 58.8751 129.432 59.0936C130.094 59.5309 130.881 60.085 131.422 60.5085L131.423 60.5086C133.399 62.0574 135.409 64.2059 136.882 66.319C134.796 56.992 130.054 48.8152 123.116 42.5683C122.7 42.1961 122.33 41.8579 122.072 41.6118C121.944 41.4899 121.838 41.3852 121.765 41.3087C121.734 41.2744 121.693 41.2286 121.662 41.1841C121.658 41.1806 121.598 41.1039 121.57 40.9933C121.559 40.9475 121.507 40.7148 121.681 40.5133C121.841 40.3272 122.044 40.3481 122.077 40.3518C122.118 40.3563 122.151 40.3671 122.155 40.3682C122.166 40.3713 122.176 40.374 122.181 40.376C122.194 40.3804 122.208 40.3855 122.219 40.3901C122.245 40.3998 122.278 40.4129 122.317 40.4284C122.394 40.4597 122.505 40.5055 122.642 40.5627C122.918 40.6774 123.31 40.8419 123.786 41.0449C124.74 41.4512 126.04 42.0122 127.457 42.6301C128.866 43.2387 130.154 43.784 131.095 44.1724C131.149 44.1948 131.203 44.2159 131.255 44.2371C130.891 43.7387 130.444 43.1353 129.965 42.5086C128.759 40.9331 127.395 39.2287 126.788 38.5827L126.787 38.5817C120.009 31.3461 112.185 26.7397 102.884 24.4975C100.701 23.9723 96.3055 23.3662 94.2155 23.3134C91.8081 23.2563 88.5977 23.4461 86.1665 23.7639C88.1613 24.2049 88.9826 24.4249 90.4438 24.8602C92.7828 25.5612 95.5307 26.6274 97.6525 27.6562L97.6515 27.6571L99.1535 28.3812L98.9229 29.3364L96.5591 29.1799L96.5582 29.1798C93.7709 28.9914 90.7363 29.0167 88.1439 29.2245L88.1429 29.2244C87.7156 29.2613 87.19 29.3187 86.6233 29.3844C86.7969 29.3996 86.9726 29.4122 87.147 29.4286C89.0377 29.6056 91.004 29.8492 92.0835 30.0691L92.0863 30.0694C101.537 32.0456 110.243 37.0663 116.765 44.3524C117.071 44.6927 117.313 44.9722 117.486 45.1965C117.571 45.3086 117.647 45.4164 117.706 45.5176C117.761 45.6125 117.821 45.7351 117.847 45.8732C117.876 46.027 117.866 46.2425 117.718 46.4258C117.592 46.5823 117.426 46.6342 117.329 46.6549C117.135 46.6965 116.886 46.6776 116.648 46.6513C116.525 46.6378 116.364 46.6311 116.206 46.629L116.436 46.959L116.437 46.9601C119.723 51.7318 122.215 59.0442 122.67 65.3321C122.898 68.3839 122.868 69.9558 122.512 73.1671L122.512 73.1689Z" fill="#D9D9D9"/>
<path d="M43.4299 122.252C44.6235 120.008 46.8758 116.487 48.2807 114.684C50.9568 111.235 53.7458 108.627 56.9773 106.544L56.9783 106.543C60.9727 103.978 64.8466 102.468 72.8246 100.367C78.9137 98.7638 82.2454 97.6463 85.3871 96.156L86.0136 95.853C92.7888 92.5061 98.2101 87.1726 103.167 78.9188L103.169 78.9172L104.657 76.4673L105.453 75.1601L105.508 76.7088L105.542 77.6578C105.751 82.008 105.072 87.9765 103.919 92.502C104.797 91.3092 105.869 89.7133 106.637 88.4177L106.639 88.4158C108.848 84.7286 110.68 80.4454 111.782 76.3566C113.236 70.9731 113.814 64.4975 113.311 59.0359C113.274 58.673 113.246 58.3384 113.232 58.0879C113.225 57.9634 113.221 57.8522 113.221 57.7663C113.221 57.7253 113.222 57.6773 113.226 57.6323C113.229 57.6114 113.234 57.5753 113.243 57.5339C113.248 57.5133 113.258 57.4777 113.275 57.4373C113.29 57.4036 113.329 57.3233 113.41 57.2528C113.534 57.1455 113.664 57.1382 113.72 57.1397C113.781 57.1414 113.829 57.1554 113.853 57.1632C113.9 57.1793 113.938 57.2004 113.956 57.211C113.998 57.2352 114.039 57.2657 114.073 57.2918C114.146 57.3469 114.238 57.4238 114.341 57.5139C114.548 57.6961 114.821 57.9519 115.11 58.2377C115.191 58.316 115.271 58.3907 115.347 58.4633C115.344 58.416 115.34 58.3673 115.336 58.3186C114.467 48.628 109.038 40.081 101.025 35.779L101.022 35.7778C100.311 35.39 99.3941 34.9636 98.5422 34.6083C101.409 37.125 103.759 39.8918 105.691 43.0395L106.104 43.7307C106.456 44.3282 106.726 44.7872 106.907 45.1183C106.996 45.2833 107.072 45.4295 107.124 45.5531C107.15 45.6147 107.175 45.6803 107.194 45.7464C107.211 45.8068 107.231 45.9017 107.224 46.0101C107.216 46.1297 107.17 46.3053 107.016 46.4312C106.878 46.5436 106.731 46.5511 106.656 46.5476C106.514 46.5411 106.373 46.4799 106.278 46.436C106.064 46.3366 105.757 46.1565 105.39 45.9438C103.737 44.9898 101.231 43.9387 99.4748 43.4786C99.2211 43.4117 98.9762 43.3502 98.7459 43.2918C100.713 44.9706 102.701 47.3454 103.99 49.5735C105.778 52.673 107 56.5818 107.334 60.2895C107.441 61.5249 107.449 63.2105 107.392 64.5787C107.363 65.2625 107.318 65.8816 107.256 66.3342C107.227 66.5565 107.189 66.7614 107.143 66.9191C107.121 66.9933 107.087 67.0928 107.03 67.1827C106.992 67.2421 106.863 67.4228 106.637 67.4458L106.535 67.4452C106.383 67.4284 106.282 67.3365 106.266 67.3221C106.229 67.2891 106.197 67.2535 106.174 67.2255C106.126 67.1676 106.077 67.0975 106.032 67.0251C105.986 66.9515 105.937 66.8657 105.888 66.7723L105.747 66.4817C104.954 64.7864 102.934 61.8822 101.417 60.2274L101.121 59.9136C100.69 59.4743 100.111 58.9338 99.6213 58.5008C99.618 58.4975 99.6136 58.495 99.6102 58.4917C99.8896 59.7501 100.154 61.6562 100.262 63.2053C100.346 64.3109 100.279 65.4221 100.007 67.8823C99.5955 71.6015 99.1887 73.1967 97.8811 76.2511C97.5778 76.9618 96.9475 78.1848 96.3874 79.2024C96.1062 79.7132 95.8371 80.1821 95.6304 80.5167C95.5292 80.6815 95.4349 80.8251 95.3584 80.9268C95.3244 80.973 95.2755 81.0358 95.2196 81.0863C95.1979 81.106 95.1327 81.1641 95.0376 81.1979C94.9852 81.2162 94.8942 81.2378 94.7852 81.2122C94.6744 81.186 94.5839 81.1188 94.5214 81.0346L94.5204 81.0355C94.518 81.0316 94.5147 81.0278 94.5123 81.0239C94.509 81.02 94.5067 81.016 94.5043 81.0121L94.5054 81.0112C94.4567 80.9365 94.4393 80.8671 94.4373 80.8593C94.4309 80.8333 94.4277 80.8114 94.4261 80.801C94.4238 80.7796 94.4211 80.7613 94.4212 80.7524C94.4197 80.7321 94.4183 80.7109 94.4183 80.6941C94.4176 80.6585 94.4172 80.6119 94.4175 80.5584C94.4183 80.4499 94.4194 80.2969 94.423 80.1129C94.431 79.745 94.4447 79.2423 94.4627 78.6918C94.5116 77.07 94.4594 74.9387 94.3611 73.2481C94.3279 72.6805 94.2878 72.1672 94.248 71.7431C94.1809 71.8773 94.1112 72.0183 94.0412 72.1624L94.0402 72.1633C89.0015 82.5152 80.2834 90.6992 70.0313 94.6978C68.0475 95.4717 66.709 95.8898 63.4552 96.7418C59.3669 97.8216 55.7268 99.7804 52.7351 102.501C48.0798 106.768 45.1198 112.152 43.8837 118.596L43.8196 118.957C43.6693 119.835 43.5343 120.988 43.4507 121.971C43.4429 122.067 43.4371 122.161 43.4299 122.252Z" fill="#D9D9D9"/>
<path d="M64.3989 148.701C66.1335 146.91 69.2191 144.216 71.0385 142.914C74.5084 140.42 77.8607 138.772 81.4962 137.765C85.9868 136.529 90.0827 136.273 98.2464 136.715C104.477 137.053 107.951 137.007 111.343 136.543L112.02 136.445C119.37 135.318 125.958 131.858 132.881 125.444L132.883 125.442L134.955 123.544L136.061 122.531L135.701 124.039L135.481 124.964C134.521 129.216 132.285 134.753 129.98 138.753C131.135 137.876 132.581 136.671 133.66 135.661L133.661 135.659C136.748 132.793 139.636 129.235 141.776 125.639C144.596 120.905 146.871 114.85 147.846 109.436C147.908 109.075 147.97 108.745 148.023 108.499C148.05 108.377 148.076 108.269 148.099 108.186C148.11 108.147 148.124 108.101 148.14 108.059C148.148 108.039 148.161 108.006 148.182 107.969C148.192 107.951 148.21 107.919 148.238 107.886C148.26 107.858 148.32 107.793 148.416 107.75C148.563 107.685 148.689 107.718 148.742 107.737C148.799 107.758 148.841 107.786 148.862 107.801C148.903 107.831 148.933 107.863 148.948 107.879C148.98 107.915 149.012 107.957 149.037 107.992C149.092 108.068 149.159 108.171 149.234 108.289C149.382 108.529 149.574 108.859 149.774 109.224C149.83 109.324 149.887 109.421 149.94 109.514C149.949 109.467 149.959 109.42 149.968 109.372C151.721 99.7731 148.823 89.8679 142.329 83.2494L142.328 83.2466C141.753 82.6534 140.993 81.9593 140.276 81.3542C142.338 84.6631 143.842 88.0534 144.844 91.6807L145.054 92.4739C145.229 93.1575 145.365 93.6831 145.448 94.0576C145.49 94.2441 145.523 94.4084 145.54 94.5434C145.549 94.6109 145.555 94.6818 145.555 94.7511C145.555 94.8144 145.549 94.912 145.514 95.0144C145.475 95.1272 145.384 95.2819 145.203 95.3555C145.042 95.4212 144.9 95.383 144.829 95.3564C144.696 95.3061 144.577 95.2035 144.499 95.1321C144.322 94.9704 144.077 94.7019 143.784 94.3838C142.461 92.9542 140.352 91.1677 138.802 90.1822C138.578 90.0394 138.361 89.9047 138.157 89.7772C139.584 92.0013 140.847 94.9021 141.482 97.4456L141.481 97.4465C142.361 100.983 142.485 105.123 141.815 108.796C141.588 110.018 141.148 111.644 140.728 112.943C140.518 113.593 140.31 114.174 140.132 114.591C140.044 114.796 139.954 114.982 139.867 115.119C139.826 115.184 139.768 115.269 139.689 115.338C139.637 115.384 139.466 115.518 139.246 115.47L139.148 115.438C139.007 115.375 138.936 115.256 138.924 115.236C138.897 115.193 138.877 115.149 138.862 115.115C138.832 115.045 138.804 114.962 138.781 114.878C138.756 114.793 138.732 114.695 138.71 114.59L138.653 114.267C138.349 112.39 137.198 108.97 136.192 106.907L135.993 106.514C135.699 105.958 135.292 105.259 134.941 104.69C134.937 104.686 134.934 104.682 134.932 104.678C134.863 105.976 134.608 107.893 134.298 109.418C134.083 110.508 133.723 111.557 132.808 113.841C131.426 117.295 130.613 118.705 128.554 121.241C128.075 121.832 127.148 122.814 126.343 123.621C125.939 124.026 125.558 124.394 125.272 124.653C125.132 124.779 125.003 124.889 124.903 124.963C124.859 124.997 124.795 125.043 124.729 125.074C124.703 125.086 124.625 125.122 124.525 125.125C124.47 125.127 124.378 125.12 124.281 125.061C124.182 125.001 124.114 124.909 124.077 124.809L124.076 124.81C124.074 124.804 124.072 124.8 124.071 124.795C124.069 124.791 124.068 124.787 124.067 124.781C124.04 124.694 124.043 124.622 124.043 124.614C124.044 124.587 124.047 124.565 124.049 124.554C124.051 124.533 124.054 124.514 124.056 124.506C124.06 124.486 124.065 124.465 124.069 124.449C124.078 124.414 124.091 124.37 124.105 124.318C124.134 124.213 124.177 124.067 124.229 123.891C124.334 123.539 124.481 123.059 124.645 122.535C125.123 120.989 125.641 118.92 125.998 117.262C126.117 116.706 126.216 116.2 126.291 115.778C126.191 115.887 126.087 116.001 125.983 116.119L125.981 116.119C118.421 124.528 107.931 129.713 97.0943 130.394C94.9969 130.526 93.61 130.515 90.2816 130.33L90.2825 130.33C86.097 130.106 82.1056 130.867 78.5291 132.562C72.9551 135.231 68.6996 139.499 65.8049 145.321L65.6474 145.648C65.2708 146.449 64.8349 147.515 64.4932 148.437C64.4601 148.526 64.4298 148.615 64.3989 148.701Z" fill="#D9D9D9"/>
<path d="M42.6632 53.6008C43.711 52.9276 44.7776 52.2954 45.978 51.6331C48.1529 50.4211 52.4754 48.5974 54.3215 48.0906L54.3226 48.0897L55.4354 47.7894L55.6814 47.7233L55.8622 47.9094L56.642 48.7059C58.0423 50.0885 59.6994 51.0196 61.5505 51.4873C60.5488 50.6063 59.7559 49.4479 59.3019 48.1582C59.2122 47.915 59.1164 47.6602 59.081 47.4332C59.0384 47.1603 59.0742 46.8794 59.2633 46.6193C59.4203 46.4051 59.6585 46.2406 59.917 46.0874C60.1864 45.9276 60.5491 45.7412 61.0079 45.5045C71.3388 40.1365 83.4698 43.8702 89.3745 54.2307L89.376 54.2339C89.5387 54.5248 89.7216 54.869 89.8982 55.2103C89.3531 51.1713 87.5971 47.4602 84.9556 44.7832L84.9546 44.7831C83.1141 42.9146 80.728 41.4001 78.4765 40.6677C78.1884 40.5746 77.9226 40.4833 77.7246 40.4107C77.626 40.3745 77.5401 40.3417 77.4751 40.3143C77.443 40.3009 77.4103 40.2854 77.3802 40.2704C77.3661 40.2632 77.3449 40.2525 77.3232 40.2385C77.3188 40.2357 77.2469 40.1944 77.1886 40.1146C77.118 40.0197 77.0787 39.8943 77.0898 39.7608C77.0991 39.6428 77.1449 39.5574 77.1741 39.5126C77.2271 39.4299 77.2901 39.3831 77.3083 39.3703C77.356 39.3349 77.4062 39.3107 77.4338 39.2978C77.4987 39.267 77.5826 39.2337 77.6709 39.2022C77.8524 39.1371 78.1025 39.0592 78.375 38.9814L78.3798 38.9799C80.0553 38.5233 81.7187 38.412 83.593 38.6194L83.5958 38.6197C85.0766 38.794 86.2388 39.084 87.486 39.6249C85.76 38.0515 83.5515 36.762 81.2186 36.0144L81.2159 36.0131C79.6821 35.5092 76.751 35.2137 75.0501 35.3771L75.0492 35.377C72.7816 35.5985 70.6988 36.2219 68.8193 37.259L68.8103 37.2638L68.0289 37.6696C67.9262 37.722 67.8374 37.7659 67.7724 37.7974C67.7399 37.8128 67.7075 37.8278 67.681 37.8394C67.6683 37.8448 67.6498 37.8523 67.6294 37.8593C67.6197 37.8626 67.6023 37.8685 67.5803 37.8734C67.5764 37.8745 67.5583 37.8786 67.5318 37.8819L67.4311 37.8825C67.3141 37.8695 67.184 37.8068 67.0954 37.6724C67.0205 37.557 67.0093 37.4392 67.0083 37.3808C67.0075 37.2702 67.039 37.1787 67.0502 37.1457C67.0803 37.0586 67.129 36.9644 67.1745 36.8814C67.2705 36.705 67.4147 36.4714 67.5816 36.219C67.9164 35.7121 68.368 35.0849 68.7682 34.5857C69.3452 33.8618 70.3676 32.8879 71.2647 32.1698C71.2344 32.1734 71.2034 32.1756 71.1732 32.1793L71.1703 32.18L70.5797 32.26C64.5023 33.2006 59.1167 37.5212 56.4663 43.6541L56.4652 43.6559L55.96 44.8095L55.8829 44.9837L55.7188 45.0599L54.6709 45.5482L54.6679 45.5498L54.3237 45.7121C52.5071 46.592 49.3091 48.4567 47.6773 49.5799C46.1369 50.6518 44.2516 52.17 42.6632 53.6008Z" fill="#D9D9D9"/>
<path d="M46.6245 44.6011L46.7517 44.5219L46.8977 44.5331L47.9657 44.6218L47.9703 44.6223C48.392 44.6615 48.6643 44.669 48.9013 44.6427C49.1315 44.6173 49.3489 44.5575 49.6559 44.4364L49.657 44.4355C51.0582 43.8879 52.1107 42.6753 52.4696 41.2431L52.4711 41.2383C52.6239 40.6493 52.9243 40.192 53.433 39.6647L53.435 39.6629C53.7883 39.3013 54.1372 38.9028 54.4495 38.5156C54.1227 38.6463 53.7827 38.7533 53.4648 38.8124C53.1143 38.8794 52.8376 38.9201 52.5753 38.9055C52.3696 38.8941 52.188 38.8501 51.997 38.7816L51.8013 38.7049C51.5125 38.5853 50.9231 38.4605 50.4046 38.4453L50.4036 38.4461L50.1818 38.4452C47.9131 38.5078 46.1717 40.6464 46.3967 43.2897L46.3957 43.2906C46.4079 43.4245 46.4269 43.6151 46.3746 43.8267C46.3217 44.0431 46.2103 44.2328 46.0609 44.4287C45.8534 44.7029 45.4977 45.0781 44.925 45.6706L46.6245 44.6011Z" fill="#D9D9D9"/>
<path d="M48.2449 102.636C49.0065 101.752 49.8257 100.946 50.8224 100.077L50.8234 100.077C53.6799 97.5916 55.7637 96.5371 61.5898 94.5725L61.5909 94.5716C67.7049 92.515 70.3253 91.0854 73.8849 87.8998L73.886 87.8989C78.5279 83.7535 82.3755 76.7252 83.5229 70.4171L83.6265 69.8086C84.1297 66.5 83.9913 64.0175 83.1681 61.4477C81.8928 57.4951 78.834 54.4013 75.0479 53.2393L75.0442 53.2389C74.5407 53.0792 73.6598 52.935 72.7539 52.8479C71.8471 52.7607 70.9772 52.7361 70.501 52.7932L70.499 52.794C70.0533 52.8454 69.3273 52.9858 68.9069 53.0865C68.7936 53.1164 68.6565 53.1587 68.5065 53.2082C69.227 53.2521 69.7178 53.2986 70.1574 53.3869C70.6125 53.4784 70.9986 53.612 71.5104 53.8147L71.5094 53.8156C73.6163 54.6419 75.1229 55.7381 76.4771 57.4945C78.2758 59.8006 79.1555 62.4074 79.1829 65.5726C79.2135 67.9507 78.2912 71.0449 76.9784 72.9334C76.8684 73.0934 76.7751 73.2288 76.6978 73.3297C76.6347 73.4113 76.5241 73.5517 76.3731 73.6268C76.2783 73.6744 76.1549 73.7034 76.0186 73.6711C75.8923 73.6411 75.8042 73.5693 75.7532 73.517C75.6676 73.4309 75.5999 73.3098 75.5638 73.2484C75.4513 73.0601 75.1533 72.5177 74.9012 72.058C73.9608 70.4037 71.8759 68.5857 69.9536 67.8095L69.951 67.8082C69.4053 67.5836 68.4873 67.3949 67.529 67.2926C66.5708 67.1903 65.6394 67.1819 65.0707 67.2829L65.0689 67.2827C64.8084 67.3281 64.4485 67.4206 64.0671 67.5316C66.669 68.0382 69.0285 70.0871 69.9907 72.7743L69.9905 72.7763C70.6519 74.6437 70.7439 76.8619 70.1773 78.5536L70.1764 78.5535C70.0292 78.9988 69.783 79.5727 69.5618 80.0299C69.4516 80.2594 69.3424 80.4706 69.2495 80.6281C69.2037 80.7047 69.155 80.7828 69.1061 80.846C69.0832 80.876 69.0466 80.92 69.0002 80.9601C68.9774 80.9804 68.9387 81.0105 68.8883 81.0362C68.8518 81.0545 68.7904 81.0786 68.7133 81.0846L68.6304 81.0833C68.4785 81.0665 68.3831 80.9763 68.3529 80.9455C68.3136 80.9054 68.2873 80.865 68.2722 80.8413C68.2422 80.7922 68.219 80.7406 68.2037 80.702C68.1698 80.6203 68.1346 80.5169 68.102 80.4078C68.0343 80.1855 67.958 79.8893 67.8858 79.5723C67.3996 77.4616 65.8989 74.8977 64.2368 73.3619C63.3601 72.5559 61.7438 71.5082 60.6249 71.0208C59.9971 70.7465 59.4264 70.6207 57.6712 70.4415L57.6675 70.4411C56.6599 70.3296 56.1032 70.2797 55.6581 70.2836C55.2269 70.2874 54.8938 70.3411 54.3299 70.457C52.3109 70.8923 50.9171 71.5413 49.3377 72.7893L49.0192 73.0469C47.8799 73.9906 46.0285 75.0602 44.0806 75.9815C42.1287 76.9046 40.0355 77.699 38.3985 78.0764C34.6936 78.9354 31.7023 78.4593 29.462 76.5463C29.6569 77.1694 29.959 77.8269 30.33 78.4344C30.9006 79.3689 31.584 80.1099 32.1875 80.4281L32.1928 80.4306C33.8638 81.3377 35.6543 81.5521 38.3031 81.1215C40.6837 80.7215 44.5335 79.328 47.8482 77.6393L47.8492 77.6394C49.6735 76.7142 50.5882 76.3418 51.8583 76.0276C54.1834 75.4556 56.9978 75.5497 59.3441 76.2771C59.9172 76.4567 60.2973 76.5774 60.5965 76.7802C60.9086 76.9923 61.1161 77.2829 61.4008 77.6758L61.404 77.68C63.2483 80.2823 63.3154 84.0069 61.6253 86.955L61.6207 86.9624L61.4286 87.2663C61.0273 87.8603 60.4891 88.4097 59.2484 89.4951L58.5669 90.0849C54.1608 93.8855 50.8638 97.8742 48.2449 102.636Z" fill="#D9D9D9"/>
<path d="M32.3266 71.7589C33.1201 71.96 34.0491 71.9391 35.1245 71.6735C36.6763 71.2903 38.502 70.4034 40.5953 68.9853L40.6003 68.9819C41.2563 68.5476 42.1397 67.9024 42.5382 67.5703L42.5423 67.5668C44.4553 66.0081 46.1823 65.1201 47.8746 64.9331C48.7914 64.8296 49.8856 64.9671 50.9396 65.2654C51.5335 65.4338 52.1259 65.6584 52.677 65.9263C52.1751 65.2893 51.6386 64.6948 51.3585 64.4874C48.8537 62.6647 45.6422 62.8054 43.2524 64.8481L43.2513 64.849L42.7095 65.297C42.5573 65.4168 42.4327 65.5065 42.3334 65.562C42.2807 65.5918 42.2077 65.6275 42.1245 65.6469C42.0469 65.6654 41.8909 65.6854 41.7351 65.5852C41.5688 65.4784 41.514 65.3079 41.497 65.2091C41.4804 65.1144 41.4872 65.0281 41.493 64.9758C41.5349 64.5972 41.722 64.0263 41.952 63.4565C42.0958 63.1004 42.2671 62.7232 42.4483 62.3579C41.405 63.2594 40.5258 64.5076 39.9608 65.9312L39.9607 65.9322L39.8358 66.2269C38.5762 69.0247 35.5846 71.1722 32.3266 71.7589Z" fill="#D9D9D9"/>
<path d="M42.7415 167.256C43.4806 165.682 43.7021 163.723 43.3563 161.354C42.9705 158.715 41.8858 155.602 40.0762 152.029L40.0729 152.024C39.52 150.905 38.6881 149.39 38.249 148.699L38.2458 148.694C36.2366 145.451 35.18 142.58 35.0993 139.83L35.0985 139.828C35.0502 138.344 35.3587 136.567 35.8939 134.856C36.3268 133.471 36.9188 132.106 37.6113 130.945C37.3493 131.139 37.0639 131.359 36.7749 131.595C35.7584 132.423 34.7529 133.363 34.3883 133.869C31.4409 138.018 31.2897 143.489 34.0163 147.672L34.0171 147.673C34.4861 148.397 34.7871 148.887 34.9126 149.194C34.9457 149.274 34.9796 149.371 34.9943 149.475C35.0076 149.574 35.0129 149.753 34.9044 149.925C34.7892 150.107 34.6197 150.164 34.5162 150.181C34.4157 150.196 34.3227 150.186 34.2577 150.175C33.7599 150.09 32.9926 149.762 32.2031 149.348C31.3986 148.926 30.5166 148.386 29.7756 147.837L29.7714 147.833C29.7628 147.826 29.7532 147.82 29.7447 147.813C30.9299 150.086 32.9151 152.055 35.3027 153.286L35.3045 153.286L35.7017 153.505C39.757 155.866 42.583 161.451 42.7415 167.256Z" fill="#D9D9D9"/>
<path d="M49.9392 161.183C49.2659 159.473 48.6154 157.298 48.3541 155.817L48.3533 155.816C47.0132 148.176 48.9092 140.613 53.693 134.519C55.5315 132.168 58.7891 129.487 61.4147 128.153C61.9886 127.854 64.2619 126.898 66.4499 125.998L66.4529 125.996C76.1553 122.069 80.4625 119.753 83.7242 116.799C85.7222 114.979 87.0769 113.048 87.9244 110.688C88.7738 108.32 89.1256 105.486 89.0649 101.838C89.0633 101.776 89.0608 101.715 89.059 101.655C86.517 106.261 83.1397 109.872 78.8227 112.624C76.9258 113.85 74.972 114.741 71.9414 115.774C65.5548 117.977 60.1885 120.934 54.9311 125.148C54.4219 125.555 53.9536 125.919 53.6089 126.178C53.4371 126.307 53.2912 126.412 53.1851 126.486C53.1337 126.522 53.0825 126.554 53.0387 126.58C53.0197 126.591 52.9858 126.611 52.9458 126.627C52.9284 126.633 52.8827 126.65 52.8241 126.657C52.8034 126.658 52.5936 126.684 52.4362 126.497L52.4352 126.498C52.4319 126.494 52.4295 126.49 52.4262 126.487C52.4229 126.482 52.4188 126.478 52.4155 126.474L52.4166 126.473C52.3564 126.393 52.3328 126.311 52.323 126.265C52.3114 126.209 52.311 126.163 52.3114 126.134C52.313 126.077 52.3214 126.026 52.3275 125.997C52.3411 125.933 52.3617 125.865 52.3816 125.803C52.4247 125.675 52.4897 125.508 52.5666 125.319C52.7224 124.939 52.9441 124.434 53.191 123.897C53.5601 123.097 53.9927 122.204 54.348 121.529L54.6727 120.937C55.6672 119.22 57.5396 116.807 59.0623 115.297L59.0624 115.296C60.8254 113.543 63.2625 111.815 65.6006 110.619C64.4182 110.832 63.1906 111.083 62.469 111.277C59.0415 112.199 56.553 113.22 53.4799 114.958L53.479 114.958C52.6029 115.452 52.1177 115.743 51.7326 116.038C51.4503 116.255 51.2148 116.479 50.9149 116.805L50.5885 117.168C47.0492 121.215 44.65 125.71 43.2226 131.002C42.7114 132.909 42.1495 136.985 42.12 138.979C42.0412 146.433 44.0924 153.189 48.1849 158.955L48.1856 158.957C48.5843 159.525 49.269 160.381 49.9392 161.183Z" fill="#D9D9D9"/>
</svg>
