<?xml version="1.0" encoding="UTF-8"?>
<!DOCTYPE svg PUBLIC "-//W3C//DTD SVG 1.1//EN" "http://www.w3.org/Graphics/SVG/1.1/DTD/svg11.dtd">
<!-- Creator: CorelDRAW -->
<svg xmlns="http://www.w3.org/2000/svg" xml:space="preserve" width="53.3614mm" height="57.7686mm" version="1.1" style="shape-rendering:geometricPrecision; text-rendering:geometricPrecision; image-rendering:optimizeQuality; fill-rule:evenodd; clip-rule:evenodd"
viewBox="0 0 4659.24 5044.05"
 xmlns:xlink="http://www.w3.org/1999/xlink"
 xmlns:xodm="http://www.corel.com/coreldraw/odm/2003">
 <defs>
  <style type="text/css">
   <![CDATA[
    .fil0 {fill:#FF1144}
   ]]>
  </style>
 </defs>
 <g id="Layer_x0020_1">
  <metadata id="CorelCorpID_0Corel-Layer"/>
  <path class="fil0" d="M1029.87 4882.74c63.79,0 116.41,-20.05 173.71,-24.81 7.88,29.49 29.14,39.74 37.22,74.45 -57.19,0 -175.34,-1.05 -210.94,-49.64zm372.25 -99.26l210.94 -142.7c1.49,17.98 27.91,63.85 37.49,80.38l90.17 145.59c16.91,24.47 35.73,40.95 52.25,65.63 -25.73,-5.46 -86.19,0 -130.28,0 -47.39,-203.42 -153.29,-148.9 -260.56,-148.9zm1792.97 -235.76c0,-51.71 8.83,-100.69 18.62,-142.69 11.48,16.53 9.63,18.25 13.42,42.41 10.22,65.07 45.25,211.97 69.83,271.4 8.49,20.5 13.98,21.6 16.01,46.02 -70.27,-5.85 -68.93,-21.08 -90.48,-77.03 -14.66,-38.05 -27.4,-90.72 -27.4,-140.11zm-2127.99 80.65l306 -140.69 98.3 -58.88c0,2.08 -3.47,2.44 -3.87,4.41l-29.63 38.61c-12.1,12.98 -24.24,25.1 -37.25,37.2 -52.98,49.3 -128.96,77.02 -201.92,95.88 -27.68,7.15 -98.2,22.72 -131.64,23.46zm198.54 37.22l89.39 -53.29c148.54,-103.04 195.02,-205.34 214.6,-219.68 -30.32,130.17 -171.89,270.03 -304,272.97zm111.67 -291.59c22.39,-16.4 76.82,-111.75 204.94,-185.92l82.7 -41.38c0.61,-1.84 2.88,-3.32 4.99,-3.28l5.17 7.24c-55.71,29.48 -200.04,148.12 -259,200.1 -38.03,33.53 -31.02,33.07 -38.79,23.24zm-733.11 -94.09c2.5,-0.43 7,9.27 9.02,11.67 79.33,94.23 327.49,157.29 444.91,157.28 30.39,0 47.79,-6.61 86.85,-6.61 -1.24,0.86 -3.31,0.45 -3.91,2.29 -5.3,16.06 -171.58,53.55 -231.84,53.55 -81.75,0 -151.45,2.93 -227.04,-27.32 -18.63,-7.46 -19.79,-11.46 -39.73,-16.11 52.75,99.7 92.57,98.01 111.68,124.08 -91.98,-21.43 -175.42,-105.92 -233.91,-175.56l-18.27 -25.16c-9.12,-12.03 -2.77,-3.75 -8.39,-10.22 7.93,95.21 81.6,166.43 86.86,186.12 -46.54,-31.16 -90.2,-78.95 -121.65,-126.52l-91.45 -156.71c-69.57,-137.07 -90.9,-202.05 -90.9,-405.42l6.21 0c0,84.56 48.46,208.73 78.51,268.91 25.87,51.82 106.94,173.07 151.04,202.6 -9.36,-40.16 -25.02,-35.44 -47.98,-125.73l-7.86 -23.16c13.37,-18.72 16.44,27.57 55.73,86.96 61.72,93.3 146.6,148.48 254.47,173.62 -10.35,-14.13 -29.38,-21.59 -47.23,-33.43 -17.61,-11.67 -31.21,-21.32 -46.84,-33.81 -25.73,-20.55 -44.88,-51.72 -63.12,-79.57 -7.86,-11.99 -2.03,-4.97 -10.32,-14.49l5.17 -7.24zm118.91 -42.4c10.27,-12.33 12.9,8.68 63.21,36.06 84.84,46.16 168.08,44.59 271.81,44.59 -20.47,-27.92 -31.57,3.82 -132.46,-47.46 -44.57,-22.66 -71.34,-50.57 -97.09,-89.03 36.22,9.67 130.12,117.39 348.46,69.29 21.23,-4.68 16.09,-1.38 29.98,-13.46 -55.84,0 -113.61,-12.41 -167.51,-12.41 11.11,-15.15 89.83,-24.54 115.7,-33.2l107.65 -47.46c-39.59,0 -62.53,9.01 -103.63,14.24 -29.72,3.79 -78,10.57 -113.51,10.57l458.32 -180.7c124.92,-41.61 275.11,-62.51 410.79,-73.55 39.43,-3.2 111.24,9.21 148.36,12.29 -50.28,-43.7 -279.53,-74.44 -335.02,-74.44l-187.82 16.9c-206.15,35.53 -368.29,98.67 -579.23,30.48 -55.79,-18.04 -108.8,-47.42 -149.28,-80.27 -86.5,-70.18 -146.46,-152.34 -175.58,-277.32 37.41,43.04 27.43,109.08 156.5,215.75 234.2,193.56 606,62.15 821.13,-69.46l81.8 -60.9c37.34,-34.59 73.42,-73.74 100.42,-116.72 10.57,-16.83 15.58,-31.56 31.34,-43.11 -13.7,58.78 -51.4,135.84 -80.55,180.02l-57.42 72.87c-17.08,18.47 -60.91,47.77 -66.77,69.72 58.52,-1.31 184.63,-37.8 225.44,-59.95 70.64,-38.35 109.78,-69.3 159.21,-126.17l0 80.64 62.91 -110.8c15.53,-43.28 26.05,-84.08 38.86,-134.85 21.44,-84.86 47.12,-213.56 47.12,-300.3l29.48 38.78c30.83,34.8 78.3,86.69 125.63,97.71 -8.9,-16.8 -16.69,-26.53 -18.62,-49.63 34.39,18.2 61.15,37.62 103.02,52.07 37.71,13.02 80.13,33.89 120.32,34.78 -12.31,16.82 -27.56,16.91 -47.87,26.58 -1.09,0.52 -3.14,1.76 -4.01,2.2 -0.86,0.44 -2.72,1.38 -3.96,2.24 59.42,0 67.75,7.77 131.21,0.93 51.26,-5.54 90.65,-2.87 135.56,-13.33 0,60.4 -12.84,105.76 -12.49,167.43 0.35,59.98 0.09,120.01 0.09,180 0.86,-1.25 1.94,-4.85 2.24,-3.96 0.31,0.89 1.79,-3.11 2.2,-4 12.04,-25.98 20.44,-51.37 38.99,-72.7 -0.63,28.05 -6.21,24.65 -6.21,55.84 0,62.55 -3.74,193.89 43.43,248.16 0,-33.47 0.38,-60.99 12.83,-92.64l5.78 -12.83c17.27,74.12 26.95,161.03 36.11,236.87 5.33,44.2 10.77,78.3 13.73,122.75 2.75,41.13 12.2,79.99 12.2,124.3 -10.9,-12.53 -8.37,-9.62 -15.03,-28.4 -14.72,-41.55 -22.2,-63.49 -22.2,-114.29l-12.42 0c-0.73,33.18 -12.41,68.08 -12.41,155.1 0,67.14 24.13,122.57 47.53,169.61 27.05,54.34 53.7,79.75 72.65,144.5 25.53,87.23 39.47,171.86 78.26,250.56 9.06,18.39 32.86,57.66 37.32,74.36l-980.24 0c0,-95.38 -43.64,-184.91 -142.72,-186.1 -33.84,-0.41 -52.71,-3.62 -74.51,-30.96 -23.85,-29.92 -54.38,-92.28 -70.86,-133.87 -11.39,-28.73 -20.03,-47.78 -28.6,-77.25 -12.35,-42.5 -11.79,-34.36 12.63,-68.11 57.71,-79.74 125.79,-153.1 211.27,-204.49 105,-63.15 220.57,-93.34 371.96,-93.34 39.35,0 118.13,6.82 142.69,18.61 -11.73,-43.91 -178.1,-112.13 -211.66,-123.36 -197.09,-65.92 -370.17,-63.76 -567.72,1.61 -158.75,52.53 -286.46,149.3 -422.94,240.89 -141.97,95.27 -301.28,127.39 -460.44,48.45 -29.14,-14.45 -32.57,-19.1 -55.91,-37.15 -0.38,-0.3 -49.3,-49.44 -49.48,-49.79zm545.95 -93.06c15.87,0 1,-9.82 0,-3.68 -0.01,0.07 -17.31,3.68 0,3.68zm-849.95 -496.32c0,-111.9 35.96,-228.28 69.03,-309.41 15.56,-38.17 114.16,-216.22 141.9,-236.54 -15.11,64.86 -28.05,73.82 -44.36,172.78 -35.95,217.95 -40.89,435.04 119.44,602.1l16.06 14.97c82.84,75.83 192.79,117.61 306.01,128.27 15.74,1.48 12.12,-0.36 27.55,3.48l17.9 6.91c0.67,-1.25 2.8,1.28 4.1,2.11 -46.42,0 -68.61,12.41 -117.88,12.41 -168.52,0 -321.82,-54.49 -392.63,-202.96l-16.31 -39.52c-5.58,-11.32 -2.1,-5.23 -6.72,-11.88 1.58,71.08 58.93,301.01 65.96,281.47 0.32,-0.91 3.35,2.85 3.32,4.95l-7.24 5.17c-11.38,-21.51 -20.59,-30.81 -34.83,-52.03 -97.69,-145.55 -76.85,-328.61 -76.85,-506.33l-6.2 0c0,91.55 -43.43,82.35 -43.43,291.59 -0.83,-1.31 -1.65,-3.24 -2.04,-4.16l-5.4 -13.23c-0.38,-1.12 -3.89,-14.03 -4.03,-14.58 -13.32,-52.28 -13.35,-81.37 -13.35,-135.55zm-161.31 651.43c-32.59,-21.82 -67.28,-108.58 -81.48,-154.28 -47.87,-154.02 -15.32,-382.59 60.73,-536.52l20.75 -35.07c-6.64,28.46 -15.51,56.52 -22.18,89.5 -15.91,78.71 -27.46,210.98 -27.46,288.95 0,214.96 7.25,165.46 49.64,347.43zm1067.09 -794.12c0,-102.21 65.15,-245.71 128.85,-317.84 24.8,-28.09 97.5,-127.58 125.52,-135.05 -37.44,70.77 -67.28,145.21 -88.15,234.45 -2.76,11.78 -54.47,240.87 -74.18,244.3l38.25 -286.43 -37.3 61.96c-11.32,21.76 -21.6,42.26 -33.09,66.18l-57.64 128.48c-0.32,-0.91 -1.39,2.71 -2.25,3.96zm-490.12 155.1c18.3,-4.88 62.76,-39.66 76.08,-54.21 44.78,-48.95 153.54,-220.5 154.5,-219.81l5.17 7.24c-17.98,20.68 -29.2,56.2 -36.1,81.77 -10.36,38.38 -29.14,173.99 11.29,203.62 0,-64.34 -1.57,-63.17 21.92,-120.77 4.43,-10.84 2.87,-8.31 7.68,-17.14 4.48,-8.23 3.41,-6.15 7.61,-10.99 0,51.38 1.62,81.75 9.72,126.78 3.75,20.86 6.42,36.36 11.71,56.53 6.52,24.89 9.6,22.08 9.6,52.44 -105.33,0 -239.89,-46.77 -279.18,-105.47zm2611.9 -465.3c27.48,-14.54 16.49,-3.54 31.02,-31.02 13.52,24.53 -25.14,38.57 -25.85,38.26l-5.17 -7.24zm-2642.92 -74.44c40.38,-55.11 90.61,-42.28 182.59,-270.31 71.69,-177.72 104.25,-313.09 285.41,-428.06 6.18,-3.92 6.02,-3.63 11.39,-7.23l16.94 -1.67c-31.57,16.7 -96.72,105.2 -113.69,134.47 -20.37,35.14 -68.79,131.97 -72.43,175.73 16.29,-18.74 40.23,-97.78 103.5,-175.68 20.33,-25.03 43.16,-54.9 67.28,-75.41 19.31,-16.41 55.49,-53.28 77.38,-59.12 -9.26,13.81 -15.18,17.17 -25.75,30.1 -116.04,142.12 -98.94,252.37 -166.65,404.13 -11.38,25.5 -22.67,44.25 -38.31,67.15 -36.06,52.76 -39.31,63.63 -48.49,50.78l15.28 -21.94c19.76,-31.17 15.69,-33.24 27.37,-65.7 11.67,-32.47 23.51,-62.89 31.8,-98.48 -16.48,12.07 -21.13,31.6 -34.69,52.17l-70.71 103.01c-56.56,73.62 -151.57,163.52 -248.24,186.05zm297.8 -372.25c1.05,-2.34 9.7,7.67 12.41,-24.81 -9.42,10.84 -8.42,7.7 -12.41,24.81zm2016.28 1309.02c8.54,-159.04 43.71,-416.24 68.21,-564.6 10.35,-62.65 45.99,-189.59 76.48,-246.13 8.78,-16.28 12.01,-18.58 20.79,-35.05 71.98,-134.94 87.38,-128.23 165.11,-293.99l4.46 -7.95c-11.25,135.08 -143.48,261.65 -198.55,483.91 -49.39,199.37 -111.64,672.98 -123.88,893.58 -2.19,39.33 -6.39,63.34 -6.39,105.28l-12.41 -124.08 6.17 -210.97zm-465.27 -930.58c8.71,-7.57 9.33,-8.25 22.85,-14.37 115.07,-52.09 207.72,-110.23 293.56,-208.97 -28.75,123.43 -234.62,221.52 -316.41,223.34zm-1476.56 421.88c0,-252.8 143.74,-392.79 267.7,-551.24 44.11,-56.38 61.22,-94.4 92.03,-149.93l12.52 -18.51c0,304.9 -316.41,422.16 -316.41,831.34 0,42.95 9.4,69.32 12.41,105.47l-37.22 0c-21.41,-91.89 -31.02,-106.91 -31.02,-217.13zm-272.97 -310.2c4.82,-4.2 2.87,-3.09 11.02,-7.59l65.56 -33.71c80.35,-43.74 128.03,-90.91 183.18,-164.24 50.94,-67.74 131.09,-255.09 131.09,-334.21l6.21 0c0,80.96 26.74,183.25 -26.74,289.66 -29.24,58.16 -43.35,75.02 -86.48,118.26 -67.25,67.42 -194.47,129.85 -283.83,131.84zm2041.13 173.71c0,-176.04 94.21,-235.65 194.21,-320.72 13.18,-11.21 24.74,-18.16 39,-29.24 137.17,-106.45 165.7,-225 188.65,-258.04 0,157.93 -112.93,253.78 -188.62,363.54 -77.54,112.46 -117.53,216.73 -127.21,356.71 -1.96,28.39 3.97,35.75 -12.98,55.25 0,-85.65 -8.84,-131.25 1.59,-215.55 10.3,-83.38 28.19,-108.13 60.45,-169.09 -14.35,5.2 -8.63,4.03 -17.87,13.14l-40.02 53.05c-55.73,90.07 -66.19,183.66 -66.19,299.85l-4.55 -7.86c-14.78,-30.86 -26.47,-107.74 -26.47,-141.04zm156.06 -216.09l24.89 -20.7 -7.24 -5.17c-17.68,24.13 -9.77,0.39 -17.66,25.87zm-2290.26 -528.4c9.96,7.89 2.11,11.12 -4.16,20.65 -102.79,156.1 -141.19,219.23 -295.54,349.68 -21.92,18.54 -40.4,30.86 -61.71,49.95l-127.27 102.29c-21.94,17.91 -39.7,31.67 -61.64,50.03 -43.26,36.23 -73.68,76.53 -111.94,117.61 -35.96,38.61 -62.6,84.98 -91.13,132.21 -22.25,36.81 -61.71,114.74 -71.74,157.81 15.75,-11.54 16.48,-21.4 37.13,-37.32 16.28,-12.55 22.44,-20.73 40.9,-33.55 27.99,-19.44 67.01,-45.09 101.9,-53.21 -103.72,154.88 -204.74,380.4 -204.74,639.01 21.43,-15.7 6.44,-4.02 17.13,-32.5 4.86,-12.96 9.14,-21.67 15.76,-33.88 12.39,-22.86 28.15,-38.37 47.76,-51.5 0,44.12 -12.41,95.04 -12.41,142.69 0,187.28 73.95,408.17 196.89,535.19 37.77,39.02 82.88,97.16 138.13,110.03 -25.82,-38.55 -82.24,-136.8 -86.86,-192.33l91.42 107.12c123.96,123.86 232.42,151.47 388.92,194.26l22.2 8.83c-86.83,0 -444.72,14.62 -541.94,35.04 -31.08,6.53 -14.18,-5.41 -28.84,14.6 104.57,24.35 219.31,21.33 329.02,24.61 36.84,1.11 65.46,6.47 111.47,6.41 158.31,-0.19 307.65,6.21 471.51,6.21l1340.08 6.2c209.6,0 1505.92,2.03 1600.64,-43.42 -12.97,-17.72 -4.45,-10.03 -33.23,-16.4 -78.3,-17.31 -145.51,-18.28 -227.53,-20.63 -25.65,-0.73 -25.78,-3.5 -44.15,-5.49 -18.36,-1.98 -39.79,1.33 -55.53,-0.3 -37.66,-3.88 -20.34,-30.11 -30.09,-69.17 -25.16,-100.74 -63.42,-123.77 -180.24,-123.77 -90.23,-134.75 -93.06,-301.31 -93.06,-465.3 0,-266.81 39.61,-520.77 95.68,-772.89 34.2,-153.81 60.97,-217.48 157.18,-326.73l83.66 -83.85c15.91,-18 31.99,-39.01 45.69,-59.78 9.05,-13.71 13.67,-20.64 22.24,-33.6l12.51 -18.5c0.77,-1.04 1.92,-2.56 2.67,-3.54 8.67,-11.3 3.3,-4.25 8.44,-10.17 0,60.18 21.2,170.15 62.04,217.14 0,-229.71 101.93,-382.41 192.1,-571 7.19,-15.03 9.75,-25.26 25.04,-30.8 0,52.69 6.21,90.48 6.21,148.9 59,-43.23 99.26,-362.49 99.26,-421.88 0,-63.01 -6.69,-128.77 -18.61,-179.91 49.17,32.92 60.8,101.2 186.12,167.5 -5.43,-65.27 -115.49,-320.86 -117.87,-428.08 33.21,38.21 59.45,101.12 99.26,130.28 0,-196.28 6.23,-361.27 -31.02,-521.14 27.27,19.98 54.56,82.38 71.02,115.11 0.62,1.25 1.45,2.95 2.09,4.11 4.51,8.19 3.32,6.2 7.55,11.06 0,-68.14 4.31,-103.86 -11.11,-168.81 -6.69,-28.21 -12.04,-51.17 -22.47,-76.79 -9.71,-23.86 -22.75,-46.21 -28.47,-70.79 29.7,19.89 71.41,27.99 111.68,18.62 -45.17,-39.27 -78.93,-29.14 -135.39,-112.78 -152.92,-226.51 1.14,-400.25 198.6,-518.87 83.98,-50.45 98.1,-54.76 98.1,-150.07 0,-27.37 -9.17,-44.2 -18.62,-62.05 -17.71,9.38 -27.18,13.94 -43.43,24.81 -17.17,-32.44 -34.41,-65.12 -74.44,-74.44 0,55.94 0.75,86.76 -30.75,111.95 -30.99,24.77 -125.27,56.96 -163.53,20.3 -83.08,-79.58 95.02,-259.97 95.02,-355.59 0,-58.58 -20.48,-93.1 -44.65,-129.06 -133.07,-197.96 -119.94,-29.44 -316.73,177.14 -98.95,103.86 -88.96,102.18 -236.89,129.15 -186,33.91 -229.02,209.15 -368.76,239.23 -78.11,16.82 -372.89,43.57 -422.66,67.46 4.38,52.69 51.97,78.1 74.44,111.67 -45.85,10.69 -58.63,18.62 -117.87,18.62 17.19,64.39 191.81,130.28 285.39,130.28 -19.77,29.51 -124.8,133.92 -160.27,162.34 -61.46,49.25 -139.41,79.61 -249.21,79.61 5.27,14.56 2.34,8.58 14.13,16.9 46.38,32.74 153.74,41.86 196.82,32.73 -23.51,35.11 -60.74,60.26 -88.3,91.63 -57.41,65.36 -93.23,142.73 -176.19,183.64 -32.87,16.21 -106.41,37.81 -151.18,16.33 7.7,28.84 43,43.71 68.11,55.98 24.79,12.11 63.96,30.09 99.4,30.87 -5.63,21.11 -23.79,26.39 -42.18,38.47 -139.29,91.57 -262.73,160.07 -447.93,160.07 31.15,46.53 76.79,48.38 117.87,74.44 -131.6,10.95 -257.48,28.99 -388.71,-14.56 -53.52,-17.76 -85.42,-44.97 -126.23,-72.29 1.73,20.78 7.62,35.66 16.5,51.74 10.08,18.26 17.34,29.4 26.93,47.52 -98.2,0 -180.85,6.21 -272.98,6.21 16.21,60.7 185.93,74.44 235.76,74.44 -15.83,13.76 -10.42,9.05 -34.4,15.23 -120.83,31.08 -195.06,-15.23 -313.02,-15.23 -115.48,0 -178.26,4.36 -287.74,41.08 -57.04,19.14 -118.91,45.78 -189.98,45.78 3.01,36.17 54.19,59.32 86.86,62.04 -13.58,18.53 -120.7,57.04 -144.45,66.48 -38.54,15.32 -120.87,50.4 -165.75,51.39l0 18.62c51.42,4.28 69.6,24.81 148.9,24.81 -24.47,33.41 -187.9,85.78 -320.51,330.92 -40.03,74.02 -108.4,176.1 -175.82,221.24l5.17 7.24c2.1,0.03 4.37,-4.47 4.99,-3.28l152.43 -83.32c33.46,-21 115.73,-83.86 135.21,-112.96zm2928.31 -105.47c0,-34.35 11.78,-63.73 18.62,-93.06 15.95,22.95 12.89,38.05 12.42,74.44 -0.51,38.16 4.61,50.61 6.23,80.63 2.84,52.46 -0.03,114.05 -0.03,167.54 -11.64,-13.39 -10.91,-17.59 -15.2,-40.64 -18.94,-101.81 -22.03,-71.21 -22.03,-188.91zm-1042.28 254.37c50.59,-75.55 101.26,-136.61 173.01,-193.04 7.78,-6.12 6.95,-4.45 13.98,-10.84 0.9,-0.81 2.4,-2.25 3.19,-3.02 0.79,-0.76 2.33,-2.62 2.94,-3.26 7.81,-8.08 2.71,-13.26 11.62,-0.79 -7.33,5.37 -127.52,190.32 -204.74,210.94zm-949.22 111.68c14.49,-10.62 29.96,-44.8 41.42,-64.05 13.59,-22.82 25.69,-39.71 39.23,-60.04 101.82,-152.8 199.92,-217.14 390.86,-217.14 -6.34,4.4 2.34,1.77 -16.42,8.41l-45.76 10.08c-58.7,14.73 -105.38,36.44 -153.81,69.53 -29.89,20.41 -56.73,41.26 -79.98,68.92 -18.36,21.83 -50.99,62.6 -57.66,91.24 22.16,-16.24 20.48,-34.88 80.55,-74.56 28.61,-18.89 67.38,-40.63 105.57,-49.52 -0.11,0.17 -181.03,165.29 -211.86,203.81 -116.59,145.67 -84.03,101.97 -155.9,241.15l-4.48 7.93c0,-123.68 8.44,-212.73 40.98,-306.45 26.63,-76.71 85.07,-155.85 145.14,-196.07 -3.95,14.79 -87.88,138.03 -117.87,266.77zm111.67 -93.06c-0.61,0.61 1.73,1.73 1.86,1.85l-1.86 -1.85zm465.31 18.61c13.4,-18.29 24,-16.76 45.49,-28.95 36.55,-20.74 90.86,-68.73 122.95,-94.2 36.38,-28.88 123.9,-147.48 135.56,-156.03 -9.32,40 -24.47,73.08 -44.57,104.33 -59.68,92.78 -145.23,148.24 -259.43,174.85zm210.94 217.14c0,-148.51 32.91,-232.55 120.41,-344.9 58.32,-74.89 185.51,-168.86 270.45,-188.64l-234.28 231.02c-16.81,18.07 -37.18,47.12 -51.09,66.8 -37.11,52.49 -58.34,87.79 -77.17,152.38l-26.01 79.46c-0.3,-0.88 -1.44,2.65 -2.31,3.89zm-1116.73 -372.24c0,-320.87 304.61,-583.41 609.9,-473.41 9.61,3.46 9.75,3.74 17.31,7.51 11.45,5.7 5.46,2.39 11.8,6.8 -84.57,1.89 -202.47,59.31 -257.04,96.6l-177.25 176.38c12.52,-53.76 56.96,-122.28 97.66,-162.91 13.24,-13.22 37.37,-31.37 45.03,-41.82 -68.02,15.85 -178.94,147.01 -217.24,204.63 -42.71,64.27 -103.06,212.91 -105.37,316.51l-24.81 -130.28zm347.43 -397.06c-0.61,0.61 1.73,1.72 1.85,1.84l-1.85 -1.84zm538.25 376.94c54.3,-47.83 211.71,-172.82 255.87,-184.62 -95.61,142.79 -217.34,274.54 -397.06,316.41l141.19 -131.79zm826.64 -141.19c0,112.48 -93.85,208.05 -186.12,229.55l30.38 -31.66c59.27,-60.67 106.2,-133.38 121.34,-219.88 13.83,-79.03 4.31,-72.74 3.38,-114.5 24.45,28.12 31.02,98.12 31.02,136.49zm545.95 24.81c0,-56.61 24.54,-104.37 45.48,-146.85 4.11,-8.36 6.62,-14.28 10.21,-20.81 4.74,-8.62 0.73,-1.89 7.08,-11.53l5.47 -6.93c-1.51,67.64 -70.72,232.13 -43.43,335.02 -17.29,-12.67 -11.87,-14.49 -17.62,-38.22 -10.63,-43.89 -7.19,-62.24 -7.19,-110.68zm-2270.29 -458.71c58.4,-21.79 127.03,-12.8 179.53,-12.8l5.15 16.18c0.09,-0.63 0.62,1.66 1.05,2.44 35.73,0 53.07,4.34 86.67,6.4 61.17,3.75 57.36,3.3 68.44,18.41 -95.88,0 -239.94,54.15 -312,85.06 -42.05,18.04 -209.57,104.03 -246.67,137.97 -8.35,7.65 -3.28,12.65 -12.1,0.31 11.87,-8.69 21.85,-25.1 35.59,-38.86 92.18,-92.22 169.22,-140.3 305.64,-172.08 -20.06,-27.39 -89.73,-36.46 -124.08,-37.22l12.8 -5.82zm1817.4 365.65c0,-35.96 -7.97,-82.67 -16,-114.28 -5.42,-21.34 -7.54,-30.79 -15.01,-47.04 -7.65,-16.64 -13.88,-23.09 -18.62,-43.42 15.3,11.21 6.02,5.58 15.4,15.61 5.56,5.95 6.38,6.92 11.93,12.89 10.27,11.05 16.76,18.12 25.92,29.92 193.05,249.11 26.39,632.82 -260.04,777.08 -47.67,24 -161.14,64.09 -227.49,64.09l52.42 -22.02c75.37,-29.81 160.86,-98.85 216.03,-156.21 112.74,-117.24 215.47,-347.11 215.47,-516.62zm-1054.69 -173.71c40.14,0 187.54,-44.75 231.95,-59.64 56.27,-18.88 171.89,-52.03 239.56,-52.03 -20.41,17.74 -161.09,59.71 -192.32,86.86 28.31,-0.63 38.17,-8.5 65.7,-14.96l213.48 -28.47c-11.67,15.93 -72.17,31.13 -96.98,39.51l-294.59 96.26c-138.29,40.93 -220.41,38.65 -359.2,37.86 -48.04,-0.28 -73.08,6.29 -124,6.29l7.85 -4.56c1.43,-0.75 6.48,-3.41 8.18,-4.23 165.35,-79.28 400.77,-37.13 486.5,-96.68 -28.06,0.62 -24.66,6.2 -55.84,6.2l-111.68 0c-17.72,0 -11.34,-1.96 -18.62,-12.41zm273.69 -21.59c16.62,6.63 -0.31,-9.82 -6.92,-3.22 -10.39,10.39 6.78,3.16 6.92,3.22zm253.66 207.71c4.25,-51.06 66.79,-132.37 97.6,-162.97 95.6,-94.98 216.83,-126.37 334.94,-173.78 67.46,-27.09 114.04,-48.15 169.25,-85.12 -13.39,50.14 -169.02,147.69 -217.14,173.72l-126.19 66.13c-237.67,128.07 -181.36,130.4 -258.46,182.03zm-434.29 -322.61c-115.95,0 -279.2,-93.04 -280.21,-94.09l26.15 0.72c3.8,0.54 13.78,0.65 17.93,0.68 93.88,0.74 143.99,18.83 236.13,24.44 90.13,5.5 191.65,18.62 285.39,18.62 -51.42,35.73 -221.97,49.63 -285.39,49.63zm1650.28 483.92c3.46,-41.64 68.25,-219.45 68.25,-310.2 -15.65,22.52 -3.93,28.66 -41.69,69.98 -17.14,18.76 -31.53,40.94 -57.58,47.89 37.25,-70.39 61.58,-104.01 77.33,-201.85 13.07,-81.2 7.54,-173.47 -9.08,-244.84 29.73,34.2 50.56,77.62 64.4,121.72 51.94,165.47 13.4,384.95 -101.63,517.3zm-440.49 -192.33c0,-78.23 24.75,-172.53 47.77,-231.41 13.39,-34.26 26.08,-62.42 43.31,-93.18 113.7,-203.13 144.68,-280.34 144.68,-537.76 7.47,8.6 2.27,0.34 9.76,15.05 37.75,74.13 70.89,211.27 70.89,295.15 0,82.85 -5.33,257.35 -62.05,322.6 3.81,-45.67 29.6,-163.54 -6.2,-204.73 0,83.21 -20.94,129.92 -45.21,190.54l-72.66 156.89c2.53,-30.47 14.81,-81.12 22.34,-114.16 7.9,-34.67 26.62,-79.09 27.29,-109.2l-25.99 48.45c-60.12,98.56 -125.58,268.95 -135.31,385.84l-5.37 -13.24c-0.45,-1.41 -3.69,-14.11 -3.83,-14.79 -2.94,-14.93 -2.09,-18.3 -3.76,-33.46 -2.76,-25 -5.65,-31.14 -5.65,-62.6zm-651.51 -663.92c130.94,-67.83 252.65,-98.72 398.4,-135.15 82.46,-20.62 167.98,-38.58 238.67,-71.53 107.83,-50.25 108.47,-64.19 169.55,-134.46 -3.08,36.99 -63.44,138.73 -83.23,171.15 -39.88,65.35 -96.16,120.65 -151.05,171.56 -12.17,11.29 -18.63,20.46 -31.46,30.59 -12.84,10.15 -23.29,14.95 -36.39,25.65 -43.39,35.45 -198.57,117.05 -201.44,117.03l-5.17 -7.24c74.59,-49.95 243.13,-203.67 285.38,-266.77 -21.45,5.73 -38.28,26.04 -56.09,36.97 -20.11,12.34 -38.76,20.67 -60.41,32.65 -74.67,41.33 -333.62,156.09 -379.82,159.93 49.84,-43.32 122.45,-99.15 185.16,-125.04l205.7 -98.3 -527.35 124.08 49.55 -31.11zm477.8 -99.18c-10.39,10.39 6.78,3.17 6.92,3.22 16.62,6.63 -0.31,-9.81 -6.92,-3.22zm105.47 -6.2c-0.61,0.61 1.74,1.73 1.85,1.84l-1.85 -1.84zm-787.91 310.2c-104.5,0 -175.39,9.28 -278.32,-0.87 -59.48,-5.86 -120.56,-23.74 -175.39,-41.75l-48.83 -19.43c65.71,0 120.75,6.06 192.48,6.35 41.13,0.17 53.49,-6.5 92.7,-6.56 168.32,-0.24 221.22,5.46 375.07,59.64 18.77,6.61 15.92,4.16 28.4,15.02 -54.92,0 -120.84,-12.41 -186.12,-12.41zm847.96 78.65c19.71,-39.43 33.82,-68.53 55.83,-105.48 20.35,-34.16 41.28,-65.5 62.9,-98.4 20.27,-30.84 39.61,-94.46 50.77,-110.53 0,67.81 1.63,98.27 -16.81,150.71 -36.4,103.52 -125.55,212.79 -212.74,271.17l60.05 -107.47zm684.38 -593.53c-63.83,-90.08 -90.36,-270.93 -37.16,-347.49 0,186.82 25.79,199.79 72.17,337.31 11.94,35.43 25.19,62.16 33.3,96.97l-68.31 -86.79zm-179.86 -204.8c0,-84.83 25.83,-142.59 74.45,-198.53 -14.02,60.17 -31.02,73.31 -31.02,155.1 0.84,-1.31 1.54,-3.33 1.94,-4.26l38.78 -79.11c0.37,-2.01 1.75,-2.37 2.72,-3.48 0,35.4 -6.21,42.92 -6.21,80.65 0,75.87 -2.49,123.06 12.85,198.09 3.68,17.97 7.33,38.58 11.8,56.43l12.57 55.68c-23.8,-44.97 -117.88,-111.33 -117.88,-260.57zm-24.81 322.61c5.09,21.85 17.51,46.48 23.66,69.41 6.75,25.16 9.42,44.58 15.97,70.88 20.29,81.59 40.03,95.62 47.23,126.48 -15.39,-11.27 -52.29,-62.81 -65.85,-83.05 -62.19,-92.84 -101.66,-214.55 -101.66,-338.83l16.74 26.69c34.18,61.21 103.34,123.42 134.86,169.14 21.6,31.35 42.43,78.09 55.58,118.14 11.32,34.53 31.79,102.94 34.79,138.93 -16.31,-11.95 -93.35,-156.69 -104.63,-186.96 -11.53,-30.94 -32.54,-93.15 -56.68,-110.84zm-4.35 -4.36l-1.85 -1.84c-0.62,0.61 1.73,1.72 1.85,1.84zm-1000.71 -51.48c5.18,-19.38 8.37,-16.82 21.06,-34.77 52.58,-74.34 87.36,-152.29 189.87,-176.17 -8.84,33.12 -52.04,46.83 -62.04,74.44 18.62,-4.33 44.59,-17.95 65.65,-27.4 25.19,-11.3 29.54,-21.71 59.77,-27.11l-57.17 60.72c18.81,-5.02 40.69,-21.4 56.19,-30.66 16.62,-9.93 37.89,-26.67 55.49,-31.37 -49.25,73.55 -105.97,139.74 -198.54,161.31 7.97,-10.88 28.82,-25.63 41.99,-38.66 19.22,-19.03 19.76,-17.99 32.46,-41.99 -56.7,4.71 -161.93,83.01 -204.74,111.67zm210.94 -130.28c-0.61,0.62 1.73,1.73 1.85,1.85l-1.85 -1.85zm49.64 -198.53c5.46,-6.29 0.49,0.87 7.91,-10.7 0.69,-1.07 1.69,-2.69 2.37,-3.83 12.52,-20.88 17.93,-42.77 34.91,-64.36 64.74,-82.29 123.41,-86.31 221.58,-138.25 -11.38,42.62 -90.26,93.17 -99.27,105.47 32.59,-2.71 60.55,-24.18 83.33,-40.75 29.41,-21.39 35.57,-21.23 60.29,-51.38 7.52,-9.17 3.11,-12.64 11.48,-0.93 -27.95,32.15 -30.8,53.44 -93.86,117.08 -37.07,37.42 -98.69,87.11 -154.3,100.06 13.72,-20.48 50.15,-74.88 55.84,-99.27 -27.59,6.43 -50.16,24.88 -69.64,42.03 -13.25,11.67 -17.15,14.45 -30.64,25.2 -30.07,23.95 -17.32,34.38 -30,19.63zm161.31 -111.68c-0.62,0.62 1.73,1.73 1.85,1.85l-1.85 -1.85zm-80.65 390.86c7.66,-21.16 -0.65,-4.23 16.51,-20.71 96.32,-92.49 96.78,-123.35 177.56,-231.9 32.46,-43.62 37.47,-40.36 61.21,-69.07 7.54,-9.12 3.08,-12.69 11.49,-0.93 -0.86,1.24 -1.8,3.11 -2.25,3.95l-16.27 33.37c-5.12,11.76 -8.64,21.87 -14.22,35.41 -6.64,16.14 -9.88,23.66 -17.95,37.89 -10.29,18.14 -11.89,10.9 -17.55,32.07 42.88,-22.68 34.75,-35.4 93.06,-74.44 -15.56,66.78 -65.09,122.71 -110.16,162.82 -59.6,53.06 -126.82,65.34 -181.43,91.54zm192.32 -179.92c-0.61,0.62 1.73,1.73 1.85,1.85l-1.85 -1.85zm322.61 -204.73c0,-24.24 9.12,-62.59 24.81,-80.65 0,37.76 -6.32,45.35 -6.36,80.49 -0.03,28.99 0.16,58.02 0.16,87.02l-6.21 0c0,-26.68 -12.41,-48.35 -12.41,-86.85zm-142.69 -18.62c0,-90.46 36.65,-151.53 91.41,-206.39l57.49 -35.57c-27.54,18.44 -63.68,86.32 -75.39,123.15 -16.7,52.55 -17.67,102.53 -17.67,174.65l11.02 -26.2c10.91,-43.34 37.43,-130.12 69.63,-153.72 -55.79,239.47 -31.02,186.25 -31.02,403.26 -67.87,-78.09 -105.47,-171.72 -105.47,-279.18zm-508.73 -328.81c18.08,-12.56 126.96,-24.66 174.94,-35.99l172.48 -32.25c-34.01,29.56 -32.77,14.21 -49.63,37.22 23.36,-1.95 43.85,-11.83 62.76,-17.89 14.35,-4.59 17.66,-4.78 34.17,-9.26 27.41,-7.45 22.88,-18.55 33.35,-3.88 -22.31,14.94 -83.81,49.42 -93.06,62.05l99.27 -24.82c-80.85,93.02 -101.73,111.68 -272.98,111.68l99.35 -49.55c16.35,-9.38 19.99,-11.77 24.74,-24.89 -34.69,2.88 -151.12,36.17 -198.54,37.22 15.8,-21.56 50.63,-19.38 68.25,-43.43l-155.1 -6.2zm291.59 -31.02c-0.62,0.62 1.73,1.73 1.85,1.85l-1.85 -1.85zm204.74 167.5c0,-175.82 114.26,-174.13 192.33,-192.32 -12.41,10.77 -13.25,11.91 -30.11,19.52 -29.05,13.11 -70.15,28.62 -87.77,54.92 19.47,-4.53 59.75,-10.67 80.65,-12.41 -20.6,17.91 -103.48,58.82 -127.92,89.23l-24.52 37.52c-0.38,-0.94 -1.69,2.43 -2.66,3.54zm68.25 -117.87c-0.62,0.62 1.73,1.73 1.85,1.85l-1.85 -1.85zm-12.41 -161.31c42.15,-62.95 43.37,-116.66 155.1,-142.69 -17.63,26.33 -55.06,39.29 -74.44,68.25 21.8,-1.82 48.01,-12.07 66.25,-20.6l52.65 -30.07 -14.33 31.17c-20.24,27.19 -26.37,33.83 -65.08,52.78l-120.15 41.16zm74.44 -74.44c-0.62,0.61 1.73,1.73 1.85,1.84l-1.85 -1.84z"/>
 </g>
</svg>
