<svg width="29" height="28" viewBox="0 0 29 28" fill="none" xmlns="http://www.w3.org/2000/svg">
<path d="M10.2773 0.0166016C19.4437 0.102712 19.444 0.103261 22.7383 2.14844C25.173 3.67694 26.9636 5.80814 28.1094 8.47754C29.291 11.2117 29.2904 15.8403 28.1445 18.4883C26.1393 23.0738 22.3795 26.0013 17.5098 26.7764C15.9701 27.0132 13.7498 27.0997 9.45312 27.0781C6.19478 27.0781 3.72429 27.0352 3.90332 26.9922C4.11844 26.9491 6.19549 26.5614 8.55859 26.1094C10.9218 25.6788 13.4281 25.1186 14.1084 24.8818C16.9012 23.9131 19.0498 22.3204 20.2314 20.3184C20.8044 19.3496 20.8757 19.3064 20.9473 19.8877C21.0189 21.1793 22.0221 18.4663 22.2012 16.335C22.559 12.8261 20.7325 9.61865 17.1162 7.42285C15.3616 6.34643 15.2181 6.15232 14.502 4.25781C13.2846 1.11501 13.4637 1.20088 12.0674 2.87988L10.8145 4.36523L10.3848 3.7627C9.9909 3.18145 9.95496 3.20323 9.0957 4.68848C8.63078 5.52705 8.12974 6.2151 8.02148 6.2168C7.80664 6.2168 2.29199 0.339352 2.29199 0.102539C2.30431 0.016722 5.88063 -0.0263811 10.2773 0.0166016ZM11.6016 5.22656C13.0696 3.41829 13.4271 3.6769 13.4629 6.49707C13.4987 8.43408 13.535 8.49896 14.6445 9.14453C16.5423 10.2425 17.6533 11.4055 18.4053 13.1924C19.2287 15.1729 19.3004 17.2831 18.6201 18.8115L18.1182 19.8877L18.083 18.5957C18.0472 16.6367 17.1519 14.8494 15.8271 14.0098C14.001 12.8903 13.7143 13.1274 14.7168 14.8711C15.9701 17.0455 15.7552 18.7251 13.9648 20.8994C13.2487 21.7606 12.7471 22.234 12.8545 21.9326C12.9977 21.6312 13.1406 20.7701 13.248 19.9951C13.3913 18.6173 13.3919 18.6176 12.8906 19.3711C11.3509 21.7607 9.38115 23.3754 6.62402 24.6025C5.65732 25.0331 4.79752 25.377 4.6543 25.377C4.55004 25.3744 5.48039 24.4928 6.76758 23.418C9.41702 21.2223 9.6322 20.9855 9.99023 19.3926C10.2051 18.4453 10.1328 18.1648 9.5957 17.8203C8.73672 17.2394 8.41421 17.2831 6.01562 18.3809C4.86979 18.8975 3.61589 19.3496 3.25781 19.3496C2.93516 19.3493 2.04003 19.026 1.32422 18.6172L0 17.9072L0.608398 16.9385C0.966457 16.4218 1.93297 15.2586 2.82812 14.376C4.00977 13.2134 4.43945 12.5462 4.43945 11.9219C4.43954 10.2858 7.05356 7.72439 9.48828 6.9707C10.0612 6.77695 10.8854 6.10923 11.6016 5.22656ZM7.16113 11.1689C6.80299 11.1693 5.51455 12.653 5.51367 13.0195C5.54948 13.364 5.65732 13.3428 6.40918 12.8262C6.91026 12.5034 7.30433 11.987 7.30469 11.6855C7.30469 11.4057 7.23275 11.1689 7.16113 11.1689Z" fill="#ED510C"/>
</svg>
